%TF.GenerationSoftware,KiCad,Pcbnew,10.0.3*%
%TF.CreationDate,2026-06-05T12:04:45+01:00*%
%TF.ProjectId,rover,726f7665-722e-46b6-9963-61645f706362,rev?*%
%TF.SameCoordinates,Original*%
%TF.FileFunction,Copper,L1,Top*%
%TF.FilePolarity,Positive*%
%FSLAX46Y46*%
G04 Gerber Fmt 4.6, Leading zero omitted, Abs format (unit mm)*
G04 Created by KiCad (PCBNEW 10.0.3) date 2026-06-05 12:04:45*
%MOMM*%
%LPD*%
G01*
G04 APERTURE LIST*
G04 Aperture macros list*
%AMRoundRect*
0 Rectangle with rounded corners*
0 $1 Rounding radius*
0 $2 $3 $4 $5 $6 $7 $8 $9 X,Y pos of 4 corners*
0 Add a 4 corners polygon primitive as box body*
4,1,4,$2,$3,$4,$5,$6,$7,$8,$9,$2,$3,0*
0 Add four circle primitives for the rounded corners*
1,1,$1+$1,$2,$3*
1,1,$1+$1,$4,$5*
1,1,$1+$1,$6,$7*
1,1,$1+$1,$8,$9*
0 Add four rect primitives between the rounded corners*
20,1,$1+$1,$2,$3,$4,$5,0*
20,1,$1+$1,$4,$5,$6,$7,0*
20,1,$1+$1,$6,$7,$8,$9,0*
20,1,$1+$1,$8,$9,$2,$3,0*%
G04 Aperture macros list end*
%TA.AperFunction,ComponentPad*%
%ADD10C,1.600000*%
%TD*%
%TA.AperFunction,ComponentPad*%
%ADD11R,1.320800X1.320800*%
%TD*%
%TA.AperFunction,ComponentPad*%
%ADD12C,1.320800*%
%TD*%
%TA.AperFunction,ComponentPad*%
%ADD13RoundRect,0.250000X0.550000X0.550000X-0.550000X0.550000X-0.550000X-0.550000X0.550000X-0.550000X0*%
%TD*%
%TA.AperFunction,ComponentPad*%
%ADD14RoundRect,0.250000X0.550000X-0.550000X0.550000X0.550000X-0.550000X0.550000X-0.550000X-0.550000X0*%
%TD*%
%TA.AperFunction,ComponentPad*%
%ADD15R,1.371600X1.371600*%
%TD*%
%TA.AperFunction,ComponentPad*%
%ADD16C,1.371600*%
%TD*%
%TA.AperFunction,ComponentPad*%
%ADD17C,1.605000*%
%TD*%
%TA.AperFunction,ComponentPad*%
%ADD18RoundRect,0.250001X1.149999X-1.149999X1.149999X1.149999X-1.149999X1.149999X-1.149999X-1.149999X0*%
%TD*%
%TA.AperFunction,ComponentPad*%
%ADD19C,2.800000*%
%TD*%
%TA.AperFunction,ComponentPad*%
%ADD20R,1.498600X1.498600*%
%TD*%
%TA.AperFunction,ComponentPad*%
%ADD21C,1.498600*%
%TD*%
%TA.AperFunction,Conductor*%
%ADD22C,0.500000*%
%TD*%
%TA.AperFunction,Conductor*%
%ADD23C,0.200000*%
%TD*%
G04 APERTURE END LIST*
D10*
%TO.P,Rhyst1,2*%
%TO.N,/IR_OUT*%
X166000000Y-77420000D03*
%TO.P,Rhyst1,1*%
%TO.N,Net-(U2A-+)*%
X166000000Y-87580000D03*
%TD*%
%TO.P,Cth1,2*%
%TO.N,GND*%
X161000000Y-84750000D03*
%TO.P,Cth1,1*%
%TO.N,Net-(U2A--)*%
X161000000Y-82250000D03*
%TD*%
%TO.P,Cbp2,2*%
%TO.N,GND*%
X175000000Y-108500000D03*
%TO.P,Cbp2,1*%
%TO.N,Net-(Cbp2-Pad1)*%
X172500000Y-108500000D03*
%TD*%
D11*
%TO.P,U5,1,NC_1*%
%TO.N,unconnected-(U5-NC-Pad1)*%
X188690000Y-84690000D03*
D12*
%TO.P,U5,2,CAP+_2*%
%TO.N,Net-(U5-CAP+)*%
X188690000Y-87230000D03*
%TO.P,U5,3,GND_3*%
%TO.N,GND*%
X188690000Y-89770000D03*
%TO.P,U5,4,CAP-_4*%
%TO.N,Net-(U5-CAP-)*%
X188690000Y-92310000D03*
%TO.P,U5,5,VOUT_5*%
%TO.N,-5V*%
X196310000Y-92310000D03*
%TO.P,U5,6,LV_6*%
%TO.N,unconnected-(U5-LV-Pad6)*%
X196310000Y-89770000D03*
%TO.P,U5,7,OSC_7*%
%TO.N,unconnected-(U5-OSC-Pad7)*%
X196310000Y-87230000D03*
%TO.P,U5,8,V+_8*%
%TO.N,+5V*%
X196310000Y-84690000D03*
%TD*%
D13*
%TO.P,C8,1*%
%TO.N,-5V*%
X197705113Y-78000000D03*
D10*
%TO.P,C8,2*%
%TO.N,GND*%
X195205113Y-78000000D03*
%TD*%
D13*
%TO.P,C7,1*%
%TO.N,Net-(U5-CAP+)*%
X185705113Y-78500000D03*
D10*
%TO.P,C7,2*%
%TO.N,Net-(U5-CAP-)*%
X183205113Y-78500000D03*
%TD*%
%TO.P,C1,1*%
%TO.N,Net-(IR_IN1-Pin_2)*%
X129667542Y-79646829D03*
%TO.P,C1,2*%
%TO.N,Net-(U1A-+)*%
X132167542Y-79646829D03*
%TD*%
D14*
%TO.P,C6,1*%
%TO.N,+3.3V*%
X124917542Y-86851942D03*
D10*
%TO.P,C6,2*%
%TO.N,GND*%
X124917542Y-84351942D03*
%TD*%
%TO.P,Rf12,1*%
%TO.N,Net-(Cbp1-Pad1)*%
X128417542Y-104646829D03*
%TO.P,Rf12,2*%
%TO.N,Net-(U3A--)*%
X128417542Y-94486829D03*
%TD*%
%TO.P,R4,1*%
%TO.N,Net-(U4-2IN-)*%
X158337542Y-68646829D03*
%TO.P,R4,2*%
%TO.N,GND*%
X168497542Y-68646829D03*
%TD*%
%TO.P,C2,1*%
%TO.N,Net-(COIL_IN1-Pin_1)*%
X113667542Y-66146829D03*
%TO.P,C2,2*%
%TO.N,GND*%
X116167542Y-66146829D03*
%TD*%
D15*
%TO.P,U4,1,1OUT_1*%
%TO.N,Net-(U4-1OUT)*%
X136107542Y-59836829D03*
D16*
%TO.P,U4,2,1IN-_2*%
%TO.N,Net-(U4-1IN-)*%
X136107542Y-62376829D03*
%TO.P,U4,3,1IN+_3*%
%TO.N,Net-(COIL_IN1-Pin_1)*%
X136107542Y-64916829D03*
%TO.P,U4,4,VCC-_4*%
%TO.N,-5V*%
X136107542Y-67456829D03*
%TO.P,U4,5,2IN+_5*%
%TO.N,Net-(U4-1OUT)*%
X143727542Y-67456829D03*
%TO.P,U4,6,2IN-_6*%
%TO.N,Net-(U4-2IN-)*%
X143727542Y-64916829D03*
%TO.P,U4,7,2OUT_7*%
%TO.N,Net-(D4-A)*%
X143727542Y-62376829D03*
%TO.P,U4,8,VCC+_8*%
%TO.N,+5V*%
X143727542Y-59836829D03*
%TD*%
D10*
%TO.P,Clpf1,1*%
%TO.N,Net-(IR_IN1-Pin_2)*%
X113667542Y-79646829D03*
%TO.P,Clpf1,2*%
%TO.N,GND*%
X116167542Y-79646829D03*
%TD*%
%TO.P,R2,1*%
%TO.N,GND*%
X109837542Y-59646829D03*
%TO.P,R2,2*%
%TO.N,Net-(U4-1IN-)*%
X119997542Y-59646829D03*
%TD*%
%TO.P,Rhpf1,1*%
%TO.N,Net-(U2A-+)*%
X171840000Y-96000000D03*
%TO.P,Rhpf1,2*%
%TO.N,Net-(U2A--)*%
X182000000Y-96000000D03*
%TD*%
D17*
%TO.P,METRO_OUT1,1,1_1*%
%TO.N,/AGE_OUT*%
X195500000Y-101690000D03*
%TO.P,METRO_OUT1,2,2_2*%
%TO.N,/IR_OUT*%
X195500000Y-104230000D03*
%TO.P,METRO_OUT1,3,3_3*%
%TO.N,/US_OUT*%
X195500000Y-106770000D03*
%TO.P,METRO_OUT1,4,4_4*%
%TO.N,/MAG_OUT*%
X195500000Y-109310000D03*
%TD*%
D10*
%TO.P,Rpullup1,1*%
%TO.N,/IR_OUT*%
X173340000Y-90500000D03*
%TO.P,Rpullup1,2*%
%TO.N,+3.3V*%
X183500000Y-90500000D03*
%TD*%
D18*
%TO.P,COIL_IN1,1,Pin_1_1*%
%TO.N,Net-(COIL_IN1-Pin_1)*%
X100417542Y-65146829D03*
D19*
%TO.P,COIL_IN1,2,Pin_2_2*%
%TO.N,GND*%
X100417542Y-60146829D03*
%TD*%
D10*
%TO.P,Cbp4,1*%
%TO.N,GND*%
X118917542Y-110646829D03*
%TO.P,Cbp4,2*%
%TO.N,+3.3V*%
X116417542Y-110646829D03*
%TD*%
%TO.P,Rth1,1*%
%TO.N,+3.3V*%
X164412542Y-73261829D03*
%TO.P,Rth1,2*%
%TO.N,Net-(U2A--)*%
X174572542Y-73261829D03*
%TD*%
%TO.P,Chpf1,1*%
%TO.N,Net-(Cf1-Pad2)*%
X152072542Y-72761829D03*
%TO.P,Chpf1,2*%
%TO.N,Net-(U2A-+)*%
X154572542Y-72761829D03*
%TD*%
%TO.P,Rf1,1*%
%TO.N,Net-(U1A--)*%
X126182542Y-73146829D03*
%TO.P,Rf1,2*%
%TO.N,Net-(Cf1-Pad2)*%
X136342542Y-73146829D03*
%TD*%
%TO.P,R1,1*%
%TO.N,Net-(U4-1IN-)*%
X127917542Y-58566829D03*
%TO.P,R1,2*%
%TO.N,Net-(U4-1OUT)*%
X127917542Y-68726829D03*
%TD*%
%TO.P,Rg1,1*%
%TO.N,Net-(U1A--)*%
X132412542Y-87761829D03*
%TO.P,Rg1,2*%
%TO.N,GND*%
X142572542Y-87761829D03*
%TD*%
%TO.P,Cin1,1*%
%TO.N,Net-(U3A-+)*%
X113417542Y-99146829D03*
%TO.P,Cin1,2*%
%TO.N,Net-(US_IN1-Pin_2)*%
X110917542Y-99146829D03*
%TD*%
D20*
%TO.P,U1,1*%
%TO.N,Net-(Cf1-Pad2)*%
X149452542Y-78951829D03*
D21*
%TO.P,U1,2,-_2*%
%TO.N,Net-(U1A--)*%
X149452542Y-81491829D03*
%TO.P,U1,3,+_3*%
%TO.N,Net-(U1A-+)*%
X149452542Y-84031829D03*
%TO.P,U1,4,V-_4*%
%TO.N,GND*%
X149452542Y-86571829D03*
%TO.P,U1,5,+_5*%
%TO.N,unconnected-(U1B-+-Pad5)*%
X157072542Y-86571829D03*
%TO.P,U1,6,-_6*%
%TO.N,unconnected-(U1B---Pad6)*%
X157072542Y-84031829D03*
%TO.P,U1,7*%
%TO.N,unconnected-(U1-Pad7)*%
X157072542Y-81491829D03*
%TO.P,U1,8,V+_8*%
%TO.N,+3.3V*%
X157072542Y-78951829D03*
%TD*%
D13*
%TO.P,D4,1,K_1*%
%TO.N,/AGE_OUT*%
X166417542Y-61646829D03*
D10*
%TO.P,D4,2,A_2*%
%TO.N,Net-(D4-A)*%
X158797542Y-61646829D03*
%TD*%
%TO.P,Rf22,1*%
%TO.N,Net-(Cbp2-Pad1)*%
X164500000Y-108500000D03*
%TO.P,Rf22,2*%
%TO.N,Net-(U3B--)*%
X154340000Y-108500000D03*
%TD*%
%TO.P,C5,1*%
%TO.N,+3.3V*%
X113917542Y-87396829D03*
%TO.P,C5,2*%
%TO.N,GND*%
X113917542Y-84896829D03*
%TD*%
D13*
%TO.P,D5,1,K_1*%
%TO.N,/US_OUT*%
X172810000Y-102500000D03*
D10*
%TO.P,D5,2,A_2*%
%TO.N,Net-(D5-A)*%
X165190000Y-102500000D03*
%TD*%
D17*
%TO.P,MAG_IN1,1,1_1*%
%TO.N,+3.3V*%
X98377542Y-110146829D03*
%TO.P,MAG_IN1,2,2_2*%
%TO.N,GND*%
X100917542Y-110146829D03*
%TO.P,MAG_IN1,3,3_3*%
%TO.N,/MAG_OUT*%
X103457542Y-110146829D03*
%TO.P,MAG_IN1,4,4_4*%
%TO.N,unconnected-(MAG_IN1-Pad4)*%
X105997542Y-110146829D03*
%TD*%
D10*
%TO.P,R3,1*%
%TO.N,Net-(D4-A)*%
X152417542Y-58566829D03*
%TO.P,R3,2*%
%TO.N,Net-(U4-2IN-)*%
X152417542Y-68726829D03*
%TD*%
%TO.P,Rf21,1*%
%TO.N,Net-(D5-A)*%
X159080000Y-102500000D03*
%TO.P,Rf21,2*%
%TO.N,Net-(U3B--)*%
X148920000Y-102500000D03*
%TD*%
D18*
%TO.P,US_IN1,1,Pin_1_1*%
%TO.N,GND*%
X100417542Y-101146829D03*
D19*
%TO.P,US_IN1,2,Pin_2_2*%
%TO.N,Net-(US_IN1-Pin_2)*%
X100417542Y-96146829D03*
%TD*%
D15*
%TO.P,U2,1*%
%TO.N,/IR_OUT*%
X170690000Y-78190000D03*
D16*
%TO.P,U2,2,-_2*%
%TO.N,Net-(U2A--)*%
X170690000Y-80730000D03*
%TO.P,U2,3,+_3*%
%TO.N,Net-(U2A-+)*%
X170690000Y-83270000D03*
%TO.P,U2,4,V-_4*%
%TO.N,GND*%
X170690000Y-85810000D03*
%TO.P,U2,5,+_5*%
%TO.N,unconnected-(U2B-+-Pad5)*%
X178310000Y-85810000D03*
%TO.P,U2,6,-_6*%
%TO.N,unconnected-(U2B---Pad6)*%
X178310000Y-83270000D03*
%TO.P,U2,7*%
%TO.N,unconnected-(U2-Pad7)*%
X178310000Y-80730000D03*
%TO.P,U2,8,V+_8*%
%TO.N,+3.3V*%
X178310000Y-78190000D03*
%TD*%
D17*
%TO.P,PWR_IN1,1,1_1*%
%TO.N,+5V*%
X193917542Y-60526829D03*
%TO.P,PWR_IN1,2,2_2*%
%TO.N,-5V*%
X193917542Y-63066829D03*
%TO.P,PWR_IN1,3,3_3*%
%TO.N,+3.3V*%
X193917542Y-65606829D03*
%TO.P,PWR_IN1,4,4_4*%
%TO.N,GND*%
X193917542Y-68146829D03*
%TD*%
D18*
%TO.P,IR_IN1,1,Pin_1_1*%
%TO.N,+3.3V*%
X100417542Y-84646829D03*
D19*
%TO.P,IR_IN1,2,Pin_2_2*%
%TO.N,Net-(IR_IN1-Pin_2)*%
X100417542Y-79646829D03*
%TD*%
D10*
%TO.P,Rb12,1*%
%TO.N,Net-(U3A-+)*%
X122417542Y-104646829D03*
%TO.P,Rb12,2*%
%TO.N,GND*%
X112257542Y-104646829D03*
%TD*%
%TO.P,R7,1*%
%TO.N,/AGE_OUT*%
X179417542Y-58566829D03*
%TO.P,R7,2*%
%TO.N,GND*%
X179417542Y-68726829D03*
%TD*%
%TO.P,C3,1*%
%TO.N,/AGE_OUT*%
X173077542Y-62646829D03*
%TO.P,C3,2*%
%TO.N,GND*%
X173077542Y-65146829D03*
%TD*%
%TO.P,Cbp1,1*%
%TO.N,Net-(Cbp1-Pad1)*%
X128417542Y-108396829D03*
%TO.P,Cbp1,2*%
%TO.N,GND*%
X128417542Y-110896829D03*
%TD*%
%TO.P,Rb11,1*%
%TO.N,+3.3V*%
X122417542Y-94146829D03*
%TO.P,Rb11,2*%
%TO.N,Net-(U3A-+)*%
X112257542Y-94146829D03*
%TD*%
%TO.P,Rth2,1*%
%TO.N,Net-(U2A--)*%
X161000000Y-88840000D03*
%TO.P,Rth2,2*%
%TO.N,GND*%
X161000000Y-99000000D03*
%TD*%
%TO.P,Cf1,1*%
%TO.N,Net-(U1A--)*%
X141762542Y-80701829D03*
%TO.P,Cf1,2*%
%TO.N,Net-(Cf1-Pad2)*%
X141762542Y-78201829D03*
%TD*%
%TO.P,Cbp3,1*%
%TO.N,/US_OUT*%
X188000000Y-107000000D03*
%TO.P,Cbp3,2*%
%TO.N,GND*%
X188000000Y-109500000D03*
%TD*%
%TO.P,Rf11,1*%
%TO.N,Net-(U3B-+)*%
X146917542Y-108646829D03*
%TO.P,Rf11,2*%
%TO.N,Net-(U3A--)*%
X136757542Y-108646829D03*
%TD*%
%TO.P,Rf23,1*%
%TO.N,GND*%
X182000000Y-110000000D03*
%TO.P,Rf23,2*%
%TO.N,/US_OUT*%
X182000000Y-99840000D03*
%TD*%
D20*
%TO.P,U3,1*%
%TO.N,Net-(U3B-+)*%
X136107542Y-95836829D03*
D21*
%TO.P,U3,2,-_2*%
%TO.N,Net-(U3A--)*%
X136107542Y-98376829D03*
%TO.P,U3,3,+_3*%
%TO.N,Net-(U3A-+)*%
X136107542Y-100916829D03*
%TO.P,U3,4,V-_4*%
%TO.N,GND*%
X136107542Y-103456829D03*
%TO.P,U3,5,+_5*%
%TO.N,Net-(U3B-+)*%
X143727542Y-103456829D03*
%TO.P,U3,6,-_6*%
%TO.N,Net-(U3B--)*%
X143727542Y-100916829D03*
%TO.P,U3,7*%
%TO.N,Net-(D5-A)*%
X143727542Y-98376829D03*
%TO.P,U3,8,V+_8*%
%TO.N,+3.3V*%
X143727542Y-95836829D03*
%TD*%
D10*
%TO.P,RL1,1*%
%TO.N,Net-(IR_IN1-Pin_2)*%
X109912542Y-73146829D03*
%TO.P,RL1,2*%
%TO.N,GND*%
X120072542Y-73146829D03*
%TD*%
%TO.N,+5V*%
D22*
X198955113Y-91235230D02*
X198955113Y-65564400D01*
X196769943Y-93420400D02*
X198955113Y-91235230D01*
X195199600Y-92769943D02*
X195850057Y-93420400D01*
X195199600Y-85800400D02*
X195199600Y-92769943D01*
X195850057Y-93420400D02*
X196769943Y-93420400D01*
X196310000Y-84690000D02*
X195199600Y-85800400D01*
X198955113Y-65564400D02*
X193917542Y-60526829D01*
%TO.N,Net-(U5-CAP-)*%
D23*
X185305113Y-88925113D02*
X188690000Y-92310000D01*
X185305113Y-80600000D02*
X185305113Y-88925113D01*
X183205113Y-78500000D02*
X185305113Y-80600000D01*
%TO.N,Net-(U5-CAP+)*%
X185705113Y-84245113D02*
X188690000Y-87230000D01*
X185705113Y-78500000D02*
X185705113Y-84245113D01*
%TO.N,+3.3V*%
D22*
X179060000Y-74750000D02*
X178310000Y-75500000D01*
X193917542Y-65606829D02*
X184774371Y-74750000D01*
X178310000Y-75500000D02*
X178310000Y-75231520D01*
X184774371Y-74750000D02*
X179060000Y-74750000D01*
%TO.N,GND*%
X195205113Y-69434400D02*
X193917542Y-68146829D01*
X195205113Y-78000000D02*
X195205113Y-69434400D01*
%TO.N,-5V*%
X197705113Y-78000000D02*
X197705113Y-90914887D01*
X197705113Y-90914887D02*
X196310000Y-92310000D01*
X197705113Y-66854400D02*
X197705113Y-78000000D01*
X193917542Y-63066829D02*
X197705113Y-66854400D01*
X139462542Y-70811829D02*
X136107542Y-67456829D01*
X186172542Y-70811829D02*
X139462542Y-70811829D01*
X193917542Y-63066829D02*
X186172542Y-70811829D01*
%TO.N,+5V*%
X146247542Y-57316829D02*
X143727542Y-59836829D01*
X190707542Y-57316829D02*
X146247542Y-57316829D01*
X193917542Y-60526829D02*
X190707542Y-57316829D01*
%TO.N,/US_OUT*%
D23*
X179340000Y-102500000D02*
X182000000Y-99840000D01*
X172810000Y-102500000D02*
X179340000Y-102500000D01*
%TO.N,/MAG_OUT*%
X104560042Y-109044329D02*
X103457542Y-110146829D01*
X116370677Y-109044329D02*
X104560042Y-109044329D01*
X117517542Y-111102464D02*
X117517542Y-110191194D01*
X117517542Y-110191194D02*
X116370677Y-109044329D01*
X118411907Y-111996829D02*
X117517542Y-111102464D01*
X195500000Y-109310000D02*
X192813171Y-111996829D01*
X192813171Y-111996829D02*
X118411907Y-111996829D01*
%TO.N,/US_OUT*%
X195270000Y-107000000D02*
X195500000Y-106770000D01*
X188000000Y-107000000D02*
X195270000Y-107000000D01*
X182000000Y-101000000D02*
X188000000Y-107000000D01*
X182000000Y-99840000D02*
X182000000Y-101000000D01*
%TO.N,/IR_OUT*%
X181770000Y-90500000D02*
X195500000Y-104230000D01*
X173340000Y-90500000D02*
X181770000Y-90500000D01*
%TO.N,Net-(U2A--)*%
X177284365Y-96000000D02*
X182000000Y-96000000D01*
X172240000Y-90955635D02*
X177284365Y-96000000D01*
X172240000Y-82280000D02*
X172240000Y-90955635D01*
X170690000Y-80730000D02*
X172240000Y-82280000D01*
%TO.N,Net-(U2A-+)*%
X154572542Y-77935764D02*
X154572542Y-72761829D01*
X158121842Y-80615794D02*
X157507177Y-80001129D01*
X158121842Y-87517477D02*
X158121842Y-80615794D01*
X157507177Y-80001129D02*
X156637907Y-80001129D01*
X156637907Y-80001129D02*
X154572542Y-77935764D01*
X163640000Y-89940000D02*
X160544365Y-89940000D01*
X160544365Y-89940000D02*
X158121842Y-87517477D01*
X166000000Y-87580000D02*
X163640000Y-89940000D01*
%TO.N,Net-(U2A--)*%
X162100000Y-87740000D02*
X161000000Y-88840000D01*
X161000000Y-82250000D02*
X162100000Y-83350000D01*
X162100000Y-83350000D02*
X162100000Y-87740000D01*
%TO.N,Net-(U2A-+)*%
X171840000Y-93420000D02*
X166000000Y-87580000D01*
X171840000Y-96000000D02*
X171840000Y-93420000D01*
X166380000Y-87580000D02*
X166000000Y-87580000D01*
X170690000Y-83270000D02*
X166380000Y-87580000D01*
%TO.N,+3.3V*%
D22*
X165662542Y-72011829D02*
X164412542Y-73261829D01*
X175090309Y-72011829D02*
X165662542Y-72011829D01*
X178310000Y-75231520D02*
X175090309Y-72011829D01*
X178310000Y-78190000D02*
X178310000Y-75500000D01*
X183500000Y-83380000D02*
X178310000Y-78190000D01*
X183500000Y-90500000D02*
X183500000Y-83380000D01*
%TO.N,Net-(U2A--)*%
D23*
X168602536Y-73261829D02*
X174572542Y-73261829D01*
X164900000Y-76964365D02*
X168602536Y-73261829D01*
X164900000Y-77875635D02*
X164900000Y-76964365D01*
X167754365Y-80730000D02*
X164900000Y-77875635D01*
X170690000Y-80730000D02*
X167754365Y-80730000D01*
X162580000Y-88840000D02*
X161000000Y-88840000D01*
X170690000Y-80730000D02*
X162580000Y-88840000D01*
%TO.N,/IR_OUT*%
X173340000Y-80840000D02*
X170690000Y-78190000D01*
X173340000Y-90500000D02*
X173340000Y-80840000D01*
X169920000Y-77420000D02*
X170690000Y-78190000D01*
X166000000Y-77420000D02*
X169920000Y-77420000D01*
%TO.N,Net-(D5-A)*%
X165190000Y-102500000D02*
X159080000Y-102500000D01*
%TO.N,Net-(Cbp2-Pad1)*%
X164500000Y-108500000D02*
X172500000Y-108500000D01*
%TO.N,Net-(U3B--)*%
X148920000Y-103080000D02*
X148920000Y-102500000D01*
X154340000Y-108500000D02*
X148920000Y-103080000D01*
X145310713Y-102500000D02*
X148920000Y-102500000D01*
X143727542Y-100916829D02*
X145310713Y-102500000D01*
%TO.N,Net-(D5-A)*%
X154956829Y-98376829D02*
X159080000Y-102500000D01*
X143727542Y-98376829D02*
X154956829Y-98376829D01*
%TO.N,Net-(IR_IN1-Pin_2)*%
X114767542Y-78546829D02*
X113667542Y-79646829D01*
X128567542Y-78546829D02*
X114767542Y-78546829D01*
X113667542Y-79646829D02*
X113667542Y-76901829D01*
X113667542Y-76901829D02*
X109912542Y-73146829D01*
X129667542Y-79646829D02*
X128567542Y-78546829D01*
X103412542Y-79646829D02*
X109912542Y-73146829D01*
X100417542Y-79646829D02*
X103412542Y-79646829D01*
%TO.N,Net-(U1A-+)*%
X136552542Y-84031829D02*
X149452542Y-84031829D01*
X132167542Y-79646829D02*
X136552542Y-84031829D01*
%TO.N,Net-(COIL_IN1-Pin_1)*%
X117347542Y-69826829D02*
X131197542Y-69826829D01*
X112667542Y-65146829D02*
X113667542Y-66146829D01*
X131197542Y-69826829D02*
X136107542Y-64916829D01*
X100417542Y-65146829D02*
X112667542Y-65146829D01*
X113667542Y-66146829D02*
X117347542Y-69826829D01*
%TO.N,/AGE_OUT*%
X172077542Y-61646829D02*
X173077542Y-62646829D01*
X166417542Y-61646829D02*
X172077542Y-61646829D01*
X179417542Y-58566829D02*
X177157542Y-58566829D01*
X177157542Y-58566829D02*
X173077542Y-62646829D01*
%TO.N,+3.3V*%
D22*
X100917542Y-84646829D02*
X103667542Y-87396829D01*
X98377542Y-110146829D02*
X99630042Y-111399329D01*
X124372655Y-87396829D02*
X124917542Y-86851942D01*
X111007542Y-97469062D02*
X112167542Y-98629062D01*
X157072542Y-73494062D02*
X155090309Y-71511829D01*
X145917542Y-93646829D02*
X143727542Y-95836829D01*
X111007542Y-93629062D02*
X111007542Y-97469062D01*
X113917542Y-87396829D02*
X124372655Y-87396829D01*
X102205042Y-109628026D02*
X102205042Y-110665632D01*
X158722542Y-78951829D02*
X164412542Y-73261829D01*
X153322542Y-72244062D02*
X153322542Y-84741829D01*
X124417542Y-92146829D02*
X145917542Y-92146829D01*
X102938739Y-111399329D02*
X115665042Y-111399329D01*
X99630042Y-111399329D02*
X115665042Y-111399329D01*
X157072542Y-78951829D02*
X158722542Y-78951829D01*
X112167542Y-99665526D02*
X102205042Y-109628026D01*
X102205042Y-110665632D02*
X102938739Y-111399329D01*
X155090309Y-71511829D02*
X154054775Y-71511829D01*
X112167542Y-98629062D02*
X112167542Y-99665526D01*
X103667542Y-87396829D02*
X113917542Y-87396829D01*
X122417542Y-89351942D02*
X124917542Y-86851942D01*
X122417542Y-94146829D02*
X124417542Y-92146829D01*
X153322542Y-84741829D02*
X145917542Y-92146829D01*
X111739775Y-92896829D02*
X111007542Y-93629062D01*
X122417542Y-94146829D02*
X121167542Y-92896829D01*
X121167542Y-92896829D02*
X111739775Y-92896829D01*
X100417542Y-84646829D02*
X100917542Y-84646829D01*
X115665042Y-111399329D02*
X116417542Y-110646829D01*
X154054775Y-71511829D02*
X153322542Y-72244062D01*
X122417542Y-94146829D02*
X122417542Y-89351942D01*
X157072542Y-78951829D02*
X157072542Y-73494062D01*
X145917542Y-92146829D02*
X145917542Y-93646829D01*
%TO.N,Net-(Cbp1-Pad1)*%
D23*
X128417542Y-104646829D02*
X128417542Y-108396829D01*
%TO.N,Net-(Cf1-Pad2)*%
X149452542Y-75381829D02*
X152072542Y-72761829D01*
X141762542Y-78201829D02*
X141397542Y-78201829D01*
X148702542Y-78201829D02*
X149452542Y-78951829D01*
X141397542Y-78201829D02*
X136342542Y-73146829D01*
X141762542Y-78201829D02*
X148702542Y-78201829D01*
X149452542Y-78951829D02*
X149452542Y-75381829D01*
%TO.N,Net-(U1A--)*%
X131711907Y-78546829D02*
X139607542Y-78546829D01*
X132412542Y-87761829D02*
X131067542Y-86416829D01*
X143472542Y-80701829D02*
X141762542Y-80701829D01*
X139607542Y-78546829D02*
X141762542Y-80701829D01*
X149452542Y-81491829D02*
X144262542Y-81491829D01*
X131067542Y-86416829D02*
X131067542Y-79191194D01*
X126311907Y-73146829D02*
X131711907Y-78546829D01*
X131067542Y-79191194D02*
X131711907Y-78546829D01*
X126182542Y-73146829D02*
X126311907Y-73146829D01*
X144262542Y-81491829D02*
X143472542Y-80701829D01*
%TO.N,Net-(US_IN1-Pin_2)*%
X107917542Y-96146829D02*
X110917542Y-99146829D01*
X100417542Y-96146829D02*
X107917542Y-96146829D01*
X100417542Y-96146829D02*
X100417542Y-96646829D01*
%TO.N,Net-(U3A-+)*%
X113417542Y-99146829D02*
X116917542Y-99146829D01*
X116917542Y-99146829D02*
X122417542Y-104646829D01*
X113417542Y-98646829D02*
X112257542Y-97486829D01*
X112257542Y-97486829D02*
X112257542Y-94146829D01*
X126147542Y-100916829D02*
X136107542Y-100916829D01*
X122417542Y-104646829D02*
X126147542Y-100916829D01*
X113417542Y-99146829D02*
X113417542Y-98646829D01*
%TO.N,Net-(D4-A)*%
X143727542Y-62376829D02*
X147537542Y-58566829D01*
X152417542Y-58566829D02*
X152527542Y-58566829D01*
X155607542Y-61646829D02*
X158797542Y-61646829D01*
X147537542Y-58566829D02*
X152417542Y-58566829D01*
X152527542Y-58566829D02*
X155607542Y-61646829D01*
%TO.N,Net-(U4-1OUT)*%
X136107542Y-59836829D02*
X137093342Y-60822629D01*
X137093342Y-62785161D02*
X135947474Y-63931029D01*
X137093342Y-60822629D02*
X137093342Y-62785161D01*
X140201742Y-63931029D02*
X135947474Y-63931029D01*
X143727542Y-67456829D02*
X140201742Y-63931029D01*
X132713342Y-63931029D02*
X127917542Y-68726829D01*
X135947474Y-63931029D02*
X132713342Y-63931029D01*
X127917542Y-68726829D02*
X127917542Y-68026829D01*
%TO.N,Net-(U4-1IN-)*%
X132297542Y-58566829D02*
X136107542Y-62376829D01*
X127917542Y-58566829D02*
X132297542Y-58566829D01*
X119997542Y-59646829D02*
X126837542Y-59646829D01*
X126837542Y-59646829D02*
X127917542Y-58566829D01*
%TO.N,Net-(U4-2IN-)*%
X147537542Y-68726829D02*
X152417542Y-68726829D01*
X152417542Y-68726829D02*
X158257542Y-68726829D01*
X158257542Y-68726829D02*
X158337542Y-68646829D01*
X143727542Y-64916829D02*
X147537542Y-68726829D01*
%TO.N,Net-(U3A--)*%
X130257542Y-94486829D02*
X134147542Y-98376829D01*
X137156842Y-99426129D02*
X136107542Y-98376829D01*
X134147542Y-98376829D02*
X136107542Y-98376829D01*
X128417542Y-94486829D02*
X130257542Y-94486829D01*
X137156842Y-108247529D02*
X137156842Y-99426129D01*
X136757542Y-108646829D02*
X137156842Y-108247529D01*
%TO.N,Net-(U3B-+)*%
X143727542Y-103456829D02*
X136107542Y-95836829D01*
X146917542Y-108646829D02*
X146917542Y-106646829D01*
X146917542Y-106646829D02*
X143727542Y-103456829D01*
%TD*%
M02*
