M48
; DRILL file KiCad 10.0.3 date 2026-06-05T12:03:33
; FORMAT={-:-/ absolute / metric / decimal}
; #@! TF.CreationDate,2026-06-05T12:03:33+01:00
; #@! TF.GenerationSoftware,Kicad,Pcbnew,10.0.3
; #@! TF.FileFunction,Plated,1,2,PTH
FMAT,2
METRIC
; #@! TA.AperFunction,Plated,PTH,ComponentDrill
T1C0.800
; #@! TA.AperFunction,Plated,PTH,ComponentDrill
T2C0.813
; #@! TA.AperFunction,Plated,PTH,ComponentDrill
T3C0.864
; #@! TA.AperFunction,Plated,PTH,ComponentDrill
T4C0.991
; #@! TA.AperFunction,Plated,PTH,ComponentDrill
T5C1.070
; #@! TA.AperFunction,Plated,PTH,ComponentDrill
T6C1.300
%
G90
G05
T1
X109.838Y-59.647
X109.913Y-73.147
X110.918Y-99.147
X112.258Y-94.147
X112.258Y-104.647
X113.418Y-99.147
X113.668Y-66.147
X113.668Y-79.647
X113.918Y-84.897
X113.918Y-87.397
X116.168Y-66.147
X116.168Y-79.647
X116.418Y-110.647
X118.918Y-110.647
X119.998Y-59.647
X120.073Y-73.147
X122.418Y-94.147
X122.418Y-104.647
X124.918Y-84.352
X124.918Y-86.852
X126.183Y-73.147
X127.918Y-58.567
X127.918Y-68.727
X128.418Y-94.487
X128.418Y-104.647
X128.418Y-108.397
X128.418Y-110.897
X129.668Y-79.647
X132.168Y-79.647
X132.413Y-87.762
X136.343Y-73.147
X136.758Y-108.647
X141.763Y-78.202
X141.763Y-80.702
X142.573Y-87.762
X146.918Y-108.647
X148.92Y-102.5
X152.073Y-72.762
X152.418Y-58.567
X152.418Y-68.727
X154.34Y-108.5
X154.573Y-72.762
X158.338Y-68.647
X158.798Y-61.647
X159.08Y-102.5
X161.0Y-82.25
X161.0Y-84.75
X161.0Y-88.84
X161.0Y-99.0
X164.413Y-73.262
X164.5Y-108.5
X165.19Y-102.5
X166.0Y-77.42
X166.0Y-87.58
X166.418Y-61.647
X168.498Y-68.647
X171.84Y-96.0
X172.5Y-108.5
X172.81Y-102.5
X173.078Y-62.647
X173.078Y-65.147
X173.34Y-90.5
X174.573Y-73.262
X175.0Y-108.5
X179.418Y-58.567
X179.418Y-68.727
X182.0Y-96.0
X182.0Y-99.84
X182.0Y-110.0
X183.205Y-78.5
X183.5Y-90.5
X185.705Y-78.5
X188.0Y-107.0
X188.0Y-109.5
X195.205Y-78.0
X197.705Y-78.0
T2
X188.69Y-84.69
X188.69Y-87.23
X188.69Y-89.77
X188.69Y-92.31
X196.31Y-84.69
X196.31Y-87.23
X196.31Y-89.77
X196.31Y-92.31
T3
X136.108Y-59.837
X136.108Y-62.377
X136.108Y-64.917
X136.108Y-67.457
X143.728Y-59.837
X143.728Y-62.377
X143.728Y-64.917
X143.728Y-67.457
X170.69Y-78.19
X170.69Y-80.73
X170.69Y-83.27
X170.69Y-85.81
X178.31Y-78.19
X178.31Y-80.73
X178.31Y-83.27
X178.31Y-85.81
T4
X136.108Y-95.837
X136.108Y-98.377
X136.108Y-100.917
X136.108Y-103.457
X143.728Y-95.837
X143.728Y-98.377
X143.728Y-100.917
X143.728Y-103.457
X149.453Y-78.952
X149.453Y-81.492
X149.453Y-84.032
X149.453Y-86.572
X157.073Y-78.952
X157.073Y-81.492
X157.073Y-84.032
X157.073Y-86.572
T5
X98.378Y-110.147
X100.918Y-110.147
X103.458Y-110.147
X105.998Y-110.147
X193.918Y-60.527
X193.918Y-63.067
X193.918Y-65.607
X193.918Y-68.147
X195.5Y-101.69
X195.5Y-104.23
X195.5Y-106.77
X195.5Y-109.31
T6
X100.418Y-60.147
X100.418Y-65.147
X100.418Y-79.647
X100.418Y-84.647
X100.418Y-96.147
X100.418Y-101.147
M30
