%TF.GenerationSoftware,KiCad,Pcbnew,10.0.3*%
%TF.CreationDate,2026-06-05T12:00:41+01:00*%
%TF.ProjectId,rover,726f7665-722e-46b6-9963-61645f706362,rev?*%
%TF.SameCoordinates,Original*%
%TF.FileFunction,Legend,Top*%
%TF.FilePolarity,Positive*%
%FSLAX46Y46*%
G04 Gerber Fmt 4.6, Leading zero omitted, Abs format (unit mm)*
G04 Created by KiCad (PCBNEW 10.0.3) date 2026-06-05 12:00:41*
%MOMM*%
%LPD*%
G01*
G04 APERTURE LIST*
%ADD10C,0.150000*%
%ADD11C,0.254000*%
%ADD12C,0.120000*%
%ADD13C,0.152400*%
%ADD14C,0.100000*%
G04 APERTURE END LIST*
D10*
X164084819Y-84190476D02*
X163608628Y-84523809D01*
X164084819Y-84761904D02*
X163084819Y-84761904D01*
X163084819Y-84761904D02*
X163084819Y-84380952D01*
X163084819Y-84380952D02*
X163132438Y-84285714D01*
X163132438Y-84285714D02*
X163180057Y-84238095D01*
X163180057Y-84238095D02*
X163275295Y-84190476D01*
X163275295Y-84190476D02*
X163418152Y-84190476D01*
X163418152Y-84190476D02*
X163513390Y-84238095D01*
X163513390Y-84238095D02*
X163561009Y-84285714D01*
X163561009Y-84285714D02*
X163608628Y-84380952D01*
X163608628Y-84380952D02*
X163608628Y-84761904D01*
X164084819Y-83761904D02*
X163084819Y-83761904D01*
X164084819Y-83333333D02*
X163561009Y-83333333D01*
X163561009Y-83333333D02*
X163465771Y-83380952D01*
X163465771Y-83380952D02*
X163418152Y-83476190D01*
X163418152Y-83476190D02*
X163418152Y-83619047D01*
X163418152Y-83619047D02*
X163465771Y-83714285D01*
X163465771Y-83714285D02*
X163513390Y-83761904D01*
X163418152Y-82952380D02*
X164084819Y-82714285D01*
X163418152Y-82476190D02*
X164084819Y-82714285D01*
X164084819Y-82714285D02*
X164322914Y-82809523D01*
X164322914Y-82809523D02*
X164370533Y-82857142D01*
X164370533Y-82857142D02*
X164418152Y-82952380D01*
X164037200Y-82142856D02*
X164084819Y-82047618D01*
X164084819Y-82047618D02*
X164084819Y-81857142D01*
X164084819Y-81857142D02*
X164037200Y-81761904D01*
X164037200Y-81761904D02*
X163941961Y-81714285D01*
X163941961Y-81714285D02*
X163894342Y-81714285D01*
X163894342Y-81714285D02*
X163799104Y-81761904D01*
X163799104Y-81761904D02*
X163751485Y-81857142D01*
X163751485Y-81857142D02*
X163751485Y-81999999D01*
X163751485Y-81999999D02*
X163703866Y-82095237D01*
X163703866Y-82095237D02*
X163608628Y-82142856D01*
X163608628Y-82142856D02*
X163561009Y-82142856D01*
X163561009Y-82142856D02*
X163465771Y-82095237D01*
X163465771Y-82095237D02*
X163418152Y-81999999D01*
X163418152Y-81999999D02*
X163418152Y-81857142D01*
X163418152Y-81857142D02*
X163465771Y-81761904D01*
X163418152Y-81428570D02*
X163418152Y-81047618D01*
X163084819Y-81285713D02*
X163941961Y-81285713D01*
X163941961Y-81285713D02*
X164037200Y-81238094D01*
X164037200Y-81238094D02*
X164084819Y-81142856D01*
X164084819Y-81142856D02*
X164084819Y-81047618D01*
X164084819Y-80190475D02*
X164084819Y-80761903D01*
X164084819Y-80476189D02*
X163084819Y-80476189D01*
X163084819Y-80476189D02*
X163227676Y-80571427D01*
X163227676Y-80571427D02*
X163322914Y-80666665D01*
X163322914Y-80666665D02*
X163370533Y-80761903D01*
X163859580Y-84404762D02*
X163907200Y-84452381D01*
X163907200Y-84452381D02*
X163954819Y-84595238D01*
X163954819Y-84595238D02*
X163954819Y-84690476D01*
X163954819Y-84690476D02*
X163907200Y-84833333D01*
X163907200Y-84833333D02*
X163811961Y-84928571D01*
X163811961Y-84928571D02*
X163716723Y-84976190D01*
X163716723Y-84976190D02*
X163526247Y-85023809D01*
X163526247Y-85023809D02*
X163383390Y-85023809D01*
X163383390Y-85023809D02*
X163192914Y-84976190D01*
X163192914Y-84976190D02*
X163097676Y-84928571D01*
X163097676Y-84928571D02*
X163002438Y-84833333D01*
X163002438Y-84833333D02*
X162954819Y-84690476D01*
X162954819Y-84690476D02*
X162954819Y-84595238D01*
X162954819Y-84595238D02*
X163002438Y-84452381D01*
X163002438Y-84452381D02*
X163050057Y-84404762D01*
X163288152Y-84119047D02*
X163288152Y-83738095D01*
X162954819Y-83976190D02*
X163811961Y-83976190D01*
X163811961Y-83976190D02*
X163907200Y-83928571D01*
X163907200Y-83928571D02*
X163954819Y-83833333D01*
X163954819Y-83833333D02*
X163954819Y-83738095D01*
X163954819Y-83404761D02*
X162954819Y-83404761D01*
X163954819Y-82976190D02*
X163431009Y-82976190D01*
X163431009Y-82976190D02*
X163335771Y-83023809D01*
X163335771Y-83023809D02*
X163288152Y-83119047D01*
X163288152Y-83119047D02*
X163288152Y-83261904D01*
X163288152Y-83261904D02*
X163335771Y-83357142D01*
X163335771Y-83357142D02*
X163383390Y-83404761D01*
X163954819Y-81976190D02*
X163954819Y-82547618D01*
X163954819Y-82261904D02*
X162954819Y-82261904D01*
X162954819Y-82261904D02*
X163097676Y-82357142D01*
X163097676Y-82357142D02*
X163192914Y-82452380D01*
X163192914Y-82452380D02*
X163240533Y-82547618D01*
X172678571Y-106359580D02*
X172630952Y-106407200D01*
X172630952Y-106407200D02*
X172488095Y-106454819D01*
X172488095Y-106454819D02*
X172392857Y-106454819D01*
X172392857Y-106454819D02*
X172250000Y-106407200D01*
X172250000Y-106407200D02*
X172154762Y-106311961D01*
X172154762Y-106311961D02*
X172107143Y-106216723D01*
X172107143Y-106216723D02*
X172059524Y-106026247D01*
X172059524Y-106026247D02*
X172059524Y-105883390D01*
X172059524Y-105883390D02*
X172107143Y-105692914D01*
X172107143Y-105692914D02*
X172154762Y-105597676D01*
X172154762Y-105597676D02*
X172250000Y-105502438D01*
X172250000Y-105502438D02*
X172392857Y-105454819D01*
X172392857Y-105454819D02*
X172488095Y-105454819D01*
X172488095Y-105454819D02*
X172630952Y-105502438D01*
X172630952Y-105502438D02*
X172678571Y-105550057D01*
X173107143Y-106454819D02*
X173107143Y-105454819D01*
X173107143Y-105835771D02*
X173202381Y-105788152D01*
X173202381Y-105788152D02*
X173392857Y-105788152D01*
X173392857Y-105788152D02*
X173488095Y-105835771D01*
X173488095Y-105835771D02*
X173535714Y-105883390D01*
X173535714Y-105883390D02*
X173583333Y-105978628D01*
X173583333Y-105978628D02*
X173583333Y-106264342D01*
X173583333Y-106264342D02*
X173535714Y-106359580D01*
X173535714Y-106359580D02*
X173488095Y-106407200D01*
X173488095Y-106407200D02*
X173392857Y-106454819D01*
X173392857Y-106454819D02*
X173202381Y-106454819D01*
X173202381Y-106454819D02*
X173107143Y-106407200D01*
X174011905Y-105788152D02*
X174011905Y-106788152D01*
X174011905Y-105835771D02*
X174107143Y-105788152D01*
X174107143Y-105788152D02*
X174297619Y-105788152D01*
X174297619Y-105788152D02*
X174392857Y-105835771D01*
X174392857Y-105835771D02*
X174440476Y-105883390D01*
X174440476Y-105883390D02*
X174488095Y-105978628D01*
X174488095Y-105978628D02*
X174488095Y-106264342D01*
X174488095Y-106264342D02*
X174440476Y-106359580D01*
X174440476Y-106359580D02*
X174392857Y-106407200D01*
X174392857Y-106407200D02*
X174297619Y-106454819D01*
X174297619Y-106454819D02*
X174107143Y-106454819D01*
X174107143Y-106454819D02*
X174011905Y-106407200D01*
X174869048Y-105550057D02*
X174916667Y-105502438D01*
X174916667Y-105502438D02*
X175011905Y-105454819D01*
X175011905Y-105454819D02*
X175250000Y-105454819D01*
X175250000Y-105454819D02*
X175345238Y-105502438D01*
X175345238Y-105502438D02*
X175392857Y-105550057D01*
X175392857Y-105550057D02*
X175440476Y-105645295D01*
X175440476Y-105645295D02*
X175440476Y-105740533D01*
X175440476Y-105740533D02*
X175392857Y-105883390D01*
X175392857Y-105883390D02*
X174821429Y-106454819D01*
X174821429Y-106454819D02*
X175440476Y-106454819D01*
X191738095Y-87954819D02*
X191738095Y-88764342D01*
X191738095Y-88764342D02*
X191785714Y-88859580D01*
X191785714Y-88859580D02*
X191833333Y-88907200D01*
X191833333Y-88907200D02*
X191928571Y-88954819D01*
X191928571Y-88954819D02*
X192119047Y-88954819D01*
X192119047Y-88954819D02*
X192214285Y-88907200D01*
X192214285Y-88907200D02*
X192261904Y-88859580D01*
X192261904Y-88859580D02*
X192309523Y-88764342D01*
X192309523Y-88764342D02*
X192309523Y-87954819D01*
X193261904Y-87954819D02*
X192785714Y-87954819D01*
X192785714Y-87954819D02*
X192738095Y-88431009D01*
X192738095Y-88431009D02*
X192785714Y-88383390D01*
X192785714Y-88383390D02*
X192880952Y-88335771D01*
X192880952Y-88335771D02*
X193119047Y-88335771D01*
X193119047Y-88335771D02*
X193214285Y-88383390D01*
X193214285Y-88383390D02*
X193261904Y-88431009D01*
X193261904Y-88431009D02*
X193309523Y-88526247D01*
X193309523Y-88526247D02*
X193309523Y-88764342D01*
X193309523Y-88764342D02*
X193261904Y-88859580D01*
X193261904Y-88859580D02*
X193214285Y-88907200D01*
X193214285Y-88907200D02*
X193119047Y-88954819D01*
X193119047Y-88954819D02*
X192880952Y-88954819D01*
X192880952Y-88954819D02*
X192785714Y-88907200D01*
X192785714Y-88907200D02*
X192738095Y-88859580D01*
X188690000Y-82722419D02*
X188690000Y-82960514D01*
X188451905Y-82865276D02*
X188690000Y-82960514D01*
X188690000Y-82960514D02*
X188928095Y-82865276D01*
X188547143Y-83150990D02*
X188690000Y-82960514D01*
X188690000Y-82960514D02*
X188832857Y-83150990D01*
X188690000Y-82722419D02*
X188690000Y-82960514D01*
X188451905Y-82865276D02*
X188690000Y-82960514D01*
X188690000Y-82960514D02*
X188928095Y-82865276D01*
X188547143Y-83150990D02*
X188690000Y-82960514D01*
X188690000Y-82960514D02*
X188832857Y-83150990D01*
X196288446Y-82109580D02*
X196240827Y-82157200D01*
X196240827Y-82157200D02*
X196097970Y-82204819D01*
X196097970Y-82204819D02*
X196002732Y-82204819D01*
X196002732Y-82204819D02*
X195859875Y-82157200D01*
X195859875Y-82157200D02*
X195764637Y-82061961D01*
X195764637Y-82061961D02*
X195717018Y-81966723D01*
X195717018Y-81966723D02*
X195669399Y-81776247D01*
X195669399Y-81776247D02*
X195669399Y-81633390D01*
X195669399Y-81633390D02*
X195717018Y-81442914D01*
X195717018Y-81442914D02*
X195764637Y-81347676D01*
X195764637Y-81347676D02*
X195859875Y-81252438D01*
X195859875Y-81252438D02*
X196002732Y-81204819D01*
X196002732Y-81204819D02*
X196097970Y-81204819D01*
X196097970Y-81204819D02*
X196240827Y-81252438D01*
X196240827Y-81252438D02*
X196288446Y-81300057D01*
X196859875Y-81633390D02*
X196764637Y-81585771D01*
X196764637Y-81585771D02*
X196717018Y-81538152D01*
X196717018Y-81538152D02*
X196669399Y-81442914D01*
X196669399Y-81442914D02*
X196669399Y-81395295D01*
X196669399Y-81395295D02*
X196717018Y-81300057D01*
X196717018Y-81300057D02*
X196764637Y-81252438D01*
X196764637Y-81252438D02*
X196859875Y-81204819D01*
X196859875Y-81204819D02*
X197050351Y-81204819D01*
X197050351Y-81204819D02*
X197145589Y-81252438D01*
X197145589Y-81252438D02*
X197193208Y-81300057D01*
X197193208Y-81300057D02*
X197240827Y-81395295D01*
X197240827Y-81395295D02*
X197240827Y-81442914D01*
X197240827Y-81442914D02*
X197193208Y-81538152D01*
X197193208Y-81538152D02*
X197145589Y-81585771D01*
X197145589Y-81585771D02*
X197050351Y-81633390D01*
X197050351Y-81633390D02*
X196859875Y-81633390D01*
X196859875Y-81633390D02*
X196764637Y-81681009D01*
X196764637Y-81681009D02*
X196717018Y-81728628D01*
X196717018Y-81728628D02*
X196669399Y-81823866D01*
X196669399Y-81823866D02*
X196669399Y-82014342D01*
X196669399Y-82014342D02*
X196717018Y-82109580D01*
X196717018Y-82109580D02*
X196764637Y-82157200D01*
X196764637Y-82157200D02*
X196859875Y-82204819D01*
X196859875Y-82204819D02*
X197050351Y-82204819D01*
X197050351Y-82204819D02*
X197145589Y-82157200D01*
X197145589Y-82157200D02*
X197193208Y-82109580D01*
X197193208Y-82109580D02*
X197240827Y-82014342D01*
X197240827Y-82014342D02*
X197240827Y-81823866D01*
X197240827Y-81823866D02*
X197193208Y-81728628D01*
X197193208Y-81728628D02*
X197145589Y-81681009D01*
X197145589Y-81681009D02*
X197050351Y-81633390D01*
X184288446Y-82609580D02*
X184240827Y-82657200D01*
X184240827Y-82657200D02*
X184097970Y-82704819D01*
X184097970Y-82704819D02*
X184002732Y-82704819D01*
X184002732Y-82704819D02*
X183859875Y-82657200D01*
X183859875Y-82657200D02*
X183764637Y-82561961D01*
X183764637Y-82561961D02*
X183717018Y-82466723D01*
X183717018Y-82466723D02*
X183669399Y-82276247D01*
X183669399Y-82276247D02*
X183669399Y-82133390D01*
X183669399Y-82133390D02*
X183717018Y-81942914D01*
X183717018Y-81942914D02*
X183764637Y-81847676D01*
X183764637Y-81847676D02*
X183859875Y-81752438D01*
X183859875Y-81752438D02*
X184002732Y-81704819D01*
X184002732Y-81704819D02*
X184097970Y-81704819D01*
X184097970Y-81704819D02*
X184240827Y-81752438D01*
X184240827Y-81752438D02*
X184288446Y-81800057D01*
X184621780Y-81704819D02*
X185288446Y-81704819D01*
X185288446Y-81704819D02*
X184859875Y-82704819D01*
X130750875Y-77506409D02*
X130703256Y-77554029D01*
X130703256Y-77554029D02*
X130560399Y-77601648D01*
X130560399Y-77601648D02*
X130465161Y-77601648D01*
X130465161Y-77601648D02*
X130322304Y-77554029D01*
X130322304Y-77554029D02*
X130227066Y-77458790D01*
X130227066Y-77458790D02*
X130179447Y-77363552D01*
X130179447Y-77363552D02*
X130131828Y-77173076D01*
X130131828Y-77173076D02*
X130131828Y-77030219D01*
X130131828Y-77030219D02*
X130179447Y-76839743D01*
X130179447Y-76839743D02*
X130227066Y-76744505D01*
X130227066Y-76744505D02*
X130322304Y-76649267D01*
X130322304Y-76649267D02*
X130465161Y-76601648D01*
X130465161Y-76601648D02*
X130560399Y-76601648D01*
X130560399Y-76601648D02*
X130703256Y-76649267D01*
X130703256Y-76649267D02*
X130750875Y-76696886D01*
X131703256Y-77601648D02*
X131131828Y-77601648D01*
X131417542Y-77601648D02*
X131417542Y-76601648D01*
X131417542Y-76601648D02*
X131322304Y-76744505D01*
X131322304Y-76744505D02*
X131227066Y-76839743D01*
X131227066Y-76839743D02*
X131131828Y-76887362D01*
X121527122Y-85768608D02*
X121574742Y-85816227D01*
X121574742Y-85816227D02*
X121622361Y-85959084D01*
X121622361Y-85959084D02*
X121622361Y-86054322D01*
X121622361Y-86054322D02*
X121574742Y-86197179D01*
X121574742Y-86197179D02*
X121479503Y-86292417D01*
X121479503Y-86292417D02*
X121384265Y-86340036D01*
X121384265Y-86340036D02*
X121193789Y-86387655D01*
X121193789Y-86387655D02*
X121050932Y-86387655D01*
X121050932Y-86387655D02*
X120860456Y-86340036D01*
X120860456Y-86340036D02*
X120765218Y-86292417D01*
X120765218Y-86292417D02*
X120669980Y-86197179D01*
X120669980Y-86197179D02*
X120622361Y-86054322D01*
X120622361Y-86054322D02*
X120622361Y-85959084D01*
X120622361Y-85959084D02*
X120669980Y-85816227D01*
X120669980Y-85816227D02*
X120717599Y-85768608D01*
X120622361Y-84911465D02*
X120622361Y-85101941D01*
X120622361Y-85101941D02*
X120669980Y-85197179D01*
X120669980Y-85197179D02*
X120717599Y-85244798D01*
X120717599Y-85244798D02*
X120860456Y-85340036D01*
X120860456Y-85340036D02*
X121050932Y-85387655D01*
X121050932Y-85387655D02*
X121431884Y-85387655D01*
X121431884Y-85387655D02*
X121527122Y-85340036D01*
X121527122Y-85340036D02*
X121574742Y-85292417D01*
X121574742Y-85292417D02*
X121622361Y-85197179D01*
X121622361Y-85197179D02*
X121622361Y-85006703D01*
X121622361Y-85006703D02*
X121574742Y-84911465D01*
X121574742Y-84911465D02*
X121527122Y-84863846D01*
X121527122Y-84863846D02*
X121431884Y-84816227D01*
X121431884Y-84816227D02*
X121193789Y-84816227D01*
X121193789Y-84816227D02*
X121098551Y-84863846D01*
X121098551Y-84863846D02*
X121050932Y-84911465D01*
X121050932Y-84911465D02*
X121003313Y-85006703D01*
X121003313Y-85006703D02*
X121003313Y-85197179D01*
X121003313Y-85197179D02*
X121050932Y-85292417D01*
X121050932Y-85292417D02*
X121098551Y-85340036D01*
X121098551Y-85340036D02*
X121193789Y-85387655D01*
X126502361Y-100495400D02*
X126026170Y-100828733D01*
X126502361Y-101066828D02*
X125502361Y-101066828D01*
X125502361Y-101066828D02*
X125502361Y-100685876D01*
X125502361Y-100685876D02*
X125549980Y-100590638D01*
X125549980Y-100590638D02*
X125597599Y-100543019D01*
X125597599Y-100543019D02*
X125692837Y-100495400D01*
X125692837Y-100495400D02*
X125835694Y-100495400D01*
X125835694Y-100495400D02*
X125930932Y-100543019D01*
X125930932Y-100543019D02*
X125978551Y-100590638D01*
X125978551Y-100590638D02*
X126026170Y-100685876D01*
X126026170Y-100685876D02*
X126026170Y-101066828D01*
X125835694Y-100209685D02*
X125835694Y-99828733D01*
X126502361Y-100066828D02*
X125645218Y-100066828D01*
X125645218Y-100066828D02*
X125549980Y-100019209D01*
X125549980Y-100019209D02*
X125502361Y-99923971D01*
X125502361Y-99923971D02*
X125502361Y-99828733D01*
X126502361Y-98971590D02*
X126502361Y-99543018D01*
X126502361Y-99257304D02*
X125502361Y-99257304D01*
X125502361Y-99257304D02*
X125645218Y-99352542D01*
X125645218Y-99352542D02*
X125740456Y-99447780D01*
X125740456Y-99447780D02*
X125788075Y-99543018D01*
X125597599Y-98590637D02*
X125549980Y-98543018D01*
X125549980Y-98543018D02*
X125502361Y-98447780D01*
X125502361Y-98447780D02*
X125502361Y-98209685D01*
X125502361Y-98209685D02*
X125549980Y-98114447D01*
X125549980Y-98114447D02*
X125597599Y-98066828D01*
X125597599Y-98066828D02*
X125692837Y-98019209D01*
X125692837Y-98019209D02*
X125788075Y-98019209D01*
X125788075Y-98019209D02*
X125930932Y-98066828D01*
X125930932Y-98066828D02*
X126502361Y-98638256D01*
X126502361Y-98638256D02*
X126502361Y-98019209D01*
X163250875Y-66731648D02*
X162917542Y-66255457D01*
X162679447Y-66731648D02*
X162679447Y-65731648D01*
X162679447Y-65731648D02*
X163060399Y-65731648D01*
X163060399Y-65731648D02*
X163155637Y-65779267D01*
X163155637Y-65779267D02*
X163203256Y-65826886D01*
X163203256Y-65826886D02*
X163250875Y-65922124D01*
X163250875Y-65922124D02*
X163250875Y-66064981D01*
X163250875Y-66064981D02*
X163203256Y-66160219D01*
X163203256Y-66160219D02*
X163155637Y-66207838D01*
X163155637Y-66207838D02*
X163060399Y-66255457D01*
X163060399Y-66255457D02*
X162679447Y-66255457D01*
X164108018Y-66064981D02*
X164108018Y-66731648D01*
X163869923Y-65684029D02*
X163631828Y-66398314D01*
X163631828Y-66398314D02*
X164250875Y-66398314D01*
X114750875Y-64006409D02*
X114703256Y-64054029D01*
X114703256Y-64054029D02*
X114560399Y-64101648D01*
X114560399Y-64101648D02*
X114465161Y-64101648D01*
X114465161Y-64101648D02*
X114322304Y-64054029D01*
X114322304Y-64054029D02*
X114227066Y-63958790D01*
X114227066Y-63958790D02*
X114179447Y-63863552D01*
X114179447Y-63863552D02*
X114131828Y-63673076D01*
X114131828Y-63673076D02*
X114131828Y-63530219D01*
X114131828Y-63530219D02*
X114179447Y-63339743D01*
X114179447Y-63339743D02*
X114227066Y-63244505D01*
X114227066Y-63244505D02*
X114322304Y-63149267D01*
X114322304Y-63149267D02*
X114465161Y-63101648D01*
X114465161Y-63101648D02*
X114560399Y-63101648D01*
X114560399Y-63101648D02*
X114703256Y-63149267D01*
X114703256Y-63149267D02*
X114750875Y-63196886D01*
X115131828Y-63196886D02*
X115179447Y-63149267D01*
X115179447Y-63149267D02*
X115274685Y-63101648D01*
X115274685Y-63101648D02*
X115512780Y-63101648D01*
X115512780Y-63101648D02*
X115608018Y-63149267D01*
X115608018Y-63149267D02*
X115655637Y-63196886D01*
X115655637Y-63196886D02*
X115703256Y-63292124D01*
X115703256Y-63292124D02*
X115703256Y-63387362D01*
X115703256Y-63387362D02*
X115655637Y-63530219D01*
X115655637Y-63530219D02*
X115084209Y-64101648D01*
X115084209Y-64101648D02*
X115703256Y-64101648D01*
X139155637Y-63101648D02*
X139155637Y-63911171D01*
X139155637Y-63911171D02*
X139203256Y-64006409D01*
X139203256Y-64006409D02*
X139250875Y-64054029D01*
X139250875Y-64054029D02*
X139346113Y-64101648D01*
X139346113Y-64101648D02*
X139536589Y-64101648D01*
X139536589Y-64101648D02*
X139631827Y-64054029D01*
X139631827Y-64054029D02*
X139679446Y-64006409D01*
X139679446Y-64006409D02*
X139727065Y-63911171D01*
X139727065Y-63911171D02*
X139727065Y-63101648D01*
X140631827Y-63434981D02*
X140631827Y-64101648D01*
X140393732Y-63054029D02*
X140155637Y-63768314D01*
X140155637Y-63768314D02*
X140774684Y-63768314D01*
X136107542Y-57843848D02*
X136107542Y-58081943D01*
X135869447Y-57986705D02*
X136107542Y-58081943D01*
X136107542Y-58081943D02*
X136345637Y-57986705D01*
X135964685Y-58272419D02*
X136107542Y-58081943D01*
X136107542Y-58081943D02*
X136250399Y-58272419D01*
X136107542Y-57843848D02*
X136107542Y-58081943D01*
X135869447Y-57986705D02*
X136107542Y-58081943D01*
X136107542Y-58081943D02*
X136345637Y-57986705D01*
X135964685Y-58272419D02*
X136107542Y-58081943D01*
X136107542Y-58081943D02*
X136250399Y-58272419D01*
X113750874Y-77506409D02*
X113703255Y-77554029D01*
X113703255Y-77554029D02*
X113560398Y-77601648D01*
X113560398Y-77601648D02*
X113465160Y-77601648D01*
X113465160Y-77601648D02*
X113322303Y-77554029D01*
X113322303Y-77554029D02*
X113227065Y-77458790D01*
X113227065Y-77458790D02*
X113179446Y-77363552D01*
X113179446Y-77363552D02*
X113131827Y-77173076D01*
X113131827Y-77173076D02*
X113131827Y-77030219D01*
X113131827Y-77030219D02*
X113179446Y-76839743D01*
X113179446Y-76839743D02*
X113227065Y-76744505D01*
X113227065Y-76744505D02*
X113322303Y-76649267D01*
X113322303Y-76649267D02*
X113465160Y-76601648D01*
X113465160Y-76601648D02*
X113560398Y-76601648D01*
X113560398Y-76601648D02*
X113703255Y-76649267D01*
X113703255Y-76649267D02*
X113750874Y-76696886D01*
X114322303Y-77601648D02*
X114227065Y-77554029D01*
X114227065Y-77554029D02*
X114179446Y-77458790D01*
X114179446Y-77458790D02*
X114179446Y-76601648D01*
X114703256Y-76934981D02*
X114703256Y-77934981D01*
X114703256Y-76982600D02*
X114798494Y-76934981D01*
X114798494Y-76934981D02*
X114988970Y-76934981D01*
X114988970Y-76934981D02*
X115084208Y-76982600D01*
X115084208Y-76982600D02*
X115131827Y-77030219D01*
X115131827Y-77030219D02*
X115179446Y-77125457D01*
X115179446Y-77125457D02*
X115179446Y-77411171D01*
X115179446Y-77411171D02*
X115131827Y-77506409D01*
X115131827Y-77506409D02*
X115084208Y-77554029D01*
X115084208Y-77554029D02*
X114988970Y-77601648D01*
X114988970Y-77601648D02*
X114798494Y-77601648D01*
X114798494Y-77601648D02*
X114703256Y-77554029D01*
X115465161Y-76934981D02*
X115846113Y-76934981D01*
X115608018Y-77601648D02*
X115608018Y-76744505D01*
X115608018Y-76744505D02*
X115655637Y-76649267D01*
X115655637Y-76649267D02*
X115750875Y-76601648D01*
X115750875Y-76601648D02*
X115846113Y-76601648D01*
X116703256Y-77601648D02*
X116131828Y-77601648D01*
X116417542Y-77601648D02*
X116417542Y-76601648D01*
X116417542Y-76601648D02*
X116322304Y-76744505D01*
X116322304Y-76744505D02*
X116227066Y-76839743D01*
X116227066Y-76839743D02*
X116131828Y-76887362D01*
X114750875Y-57731648D02*
X114417542Y-57255457D01*
X114179447Y-57731648D02*
X114179447Y-56731648D01*
X114179447Y-56731648D02*
X114560399Y-56731648D01*
X114560399Y-56731648D02*
X114655637Y-56779267D01*
X114655637Y-56779267D02*
X114703256Y-56826886D01*
X114703256Y-56826886D02*
X114750875Y-56922124D01*
X114750875Y-56922124D02*
X114750875Y-57064981D01*
X114750875Y-57064981D02*
X114703256Y-57160219D01*
X114703256Y-57160219D02*
X114655637Y-57207838D01*
X114655637Y-57207838D02*
X114560399Y-57255457D01*
X114560399Y-57255457D02*
X114179447Y-57255457D01*
X115131828Y-56826886D02*
X115179447Y-56779267D01*
X115179447Y-56779267D02*
X115274685Y-56731648D01*
X115274685Y-56731648D02*
X115512780Y-56731648D01*
X115512780Y-56731648D02*
X115608018Y-56779267D01*
X115608018Y-56779267D02*
X115655637Y-56826886D01*
X115655637Y-56826886D02*
X115703256Y-56922124D01*
X115703256Y-56922124D02*
X115703256Y-57017362D01*
X115703256Y-57017362D02*
X115655637Y-57160219D01*
X115655637Y-57160219D02*
X115084209Y-57731648D01*
X115084209Y-57731648D02*
X115703256Y-57731648D01*
X175562856Y-94084819D02*
X175229523Y-93608628D01*
X174991428Y-94084819D02*
X174991428Y-93084819D01*
X174991428Y-93084819D02*
X175372380Y-93084819D01*
X175372380Y-93084819D02*
X175467618Y-93132438D01*
X175467618Y-93132438D02*
X175515237Y-93180057D01*
X175515237Y-93180057D02*
X175562856Y-93275295D01*
X175562856Y-93275295D02*
X175562856Y-93418152D01*
X175562856Y-93418152D02*
X175515237Y-93513390D01*
X175515237Y-93513390D02*
X175467618Y-93561009D01*
X175467618Y-93561009D02*
X175372380Y-93608628D01*
X175372380Y-93608628D02*
X174991428Y-93608628D01*
X175991428Y-94084819D02*
X175991428Y-93084819D01*
X176419999Y-94084819D02*
X176419999Y-93561009D01*
X176419999Y-93561009D02*
X176372380Y-93465771D01*
X176372380Y-93465771D02*
X176277142Y-93418152D01*
X176277142Y-93418152D02*
X176134285Y-93418152D01*
X176134285Y-93418152D02*
X176039047Y-93465771D01*
X176039047Y-93465771D02*
X175991428Y-93513390D01*
X176896190Y-93418152D02*
X176896190Y-94418152D01*
X176896190Y-93465771D02*
X176991428Y-93418152D01*
X176991428Y-93418152D02*
X177181904Y-93418152D01*
X177181904Y-93418152D02*
X177277142Y-93465771D01*
X177277142Y-93465771D02*
X177324761Y-93513390D01*
X177324761Y-93513390D02*
X177372380Y-93608628D01*
X177372380Y-93608628D02*
X177372380Y-93894342D01*
X177372380Y-93894342D02*
X177324761Y-93989580D01*
X177324761Y-93989580D02*
X177277142Y-94037200D01*
X177277142Y-94037200D02*
X177181904Y-94084819D01*
X177181904Y-94084819D02*
X176991428Y-94084819D01*
X176991428Y-94084819D02*
X176896190Y-94037200D01*
X177658095Y-93418152D02*
X178039047Y-93418152D01*
X177800952Y-94084819D02*
X177800952Y-93227676D01*
X177800952Y-93227676D02*
X177848571Y-93132438D01*
X177848571Y-93132438D02*
X177943809Y-93084819D01*
X177943809Y-93084819D02*
X178039047Y-93084819D01*
X178896190Y-94084819D02*
X178324762Y-94084819D01*
X178610476Y-94084819D02*
X178610476Y-93084819D01*
X178610476Y-93084819D02*
X178515238Y-93227676D01*
X178515238Y-93227676D02*
X178420000Y-93322914D01*
X178420000Y-93322914D02*
X178324762Y-93370533D01*
D11*
X196074318Y-111184762D02*
X194804318Y-111184762D01*
X194804318Y-111184762D02*
X195711461Y-110761428D01*
X195711461Y-110761428D02*
X194804318Y-110338095D01*
X194804318Y-110338095D02*
X196074318Y-110338095D01*
X195409080Y-109733333D02*
X195409080Y-109309999D01*
X196074318Y-109128571D02*
X196074318Y-109733333D01*
X196074318Y-109733333D02*
X194804318Y-109733333D01*
X194804318Y-109733333D02*
X194804318Y-109128571D01*
X194804318Y-108765713D02*
X194804318Y-108039999D01*
X196074318Y-108402856D02*
X194804318Y-108402856D01*
X196074318Y-106890951D02*
X195469556Y-107314285D01*
X196074318Y-107616666D02*
X194804318Y-107616666D01*
X194804318Y-107616666D02*
X194804318Y-107132856D01*
X194804318Y-107132856D02*
X194864794Y-107011904D01*
X194864794Y-107011904D02*
X194925270Y-106951427D01*
X194925270Y-106951427D02*
X195046222Y-106890951D01*
X195046222Y-106890951D02*
X195227651Y-106890951D01*
X195227651Y-106890951D02*
X195348603Y-106951427D01*
X195348603Y-106951427D02*
X195409080Y-107011904D01*
X195409080Y-107011904D02*
X195469556Y-107132856D01*
X195469556Y-107132856D02*
X195469556Y-107616666D01*
X194804318Y-106104761D02*
X194804318Y-105862856D01*
X194804318Y-105862856D02*
X194864794Y-105741904D01*
X194864794Y-105741904D02*
X194985746Y-105620951D01*
X194985746Y-105620951D02*
X195227651Y-105560475D01*
X195227651Y-105560475D02*
X195650984Y-105560475D01*
X195650984Y-105560475D02*
X195892889Y-105620951D01*
X195892889Y-105620951D02*
X196013842Y-105741904D01*
X196013842Y-105741904D02*
X196074318Y-105862856D01*
X196074318Y-105862856D02*
X196074318Y-106104761D01*
X196074318Y-106104761D02*
X196013842Y-106225713D01*
X196013842Y-106225713D02*
X195892889Y-106346666D01*
X195892889Y-106346666D02*
X195650984Y-106407142D01*
X195650984Y-106407142D02*
X195227651Y-106407142D01*
X195227651Y-106407142D02*
X194985746Y-106346666D01*
X194985746Y-106346666D02*
X194864794Y-106225713D01*
X194864794Y-106225713D02*
X194804318Y-106104761D01*
X196195270Y-105318571D02*
X196195270Y-104350951D01*
X194804318Y-103806666D02*
X194804318Y-103564761D01*
X194804318Y-103564761D02*
X194864794Y-103443809D01*
X194864794Y-103443809D02*
X194985746Y-103322856D01*
X194985746Y-103322856D02*
X195227651Y-103262380D01*
X195227651Y-103262380D02*
X195650984Y-103262380D01*
X195650984Y-103262380D02*
X195892889Y-103322856D01*
X195892889Y-103322856D02*
X196013842Y-103443809D01*
X196013842Y-103443809D02*
X196074318Y-103564761D01*
X196074318Y-103564761D02*
X196074318Y-103806666D01*
X196074318Y-103806666D02*
X196013842Y-103927618D01*
X196013842Y-103927618D02*
X195892889Y-104048571D01*
X195892889Y-104048571D02*
X195650984Y-104109047D01*
X195650984Y-104109047D02*
X195227651Y-104109047D01*
X195227651Y-104109047D02*
X194985746Y-104048571D01*
X194985746Y-104048571D02*
X194864794Y-103927618D01*
X194864794Y-103927618D02*
X194804318Y-103806666D01*
X194804318Y-102718095D02*
X195832413Y-102718095D01*
X195832413Y-102718095D02*
X195953365Y-102657618D01*
X195953365Y-102657618D02*
X196013842Y-102597142D01*
X196013842Y-102597142D02*
X196074318Y-102476190D01*
X196074318Y-102476190D02*
X196074318Y-102234285D01*
X196074318Y-102234285D02*
X196013842Y-102113333D01*
X196013842Y-102113333D02*
X195953365Y-102052856D01*
X195953365Y-102052856D02*
X195832413Y-101992380D01*
X195832413Y-101992380D02*
X194804318Y-101992380D01*
X194804318Y-101569047D02*
X194804318Y-100843333D01*
X196074318Y-101206190D02*
X194804318Y-101206190D01*
X196074318Y-99754761D02*
X196074318Y-100480476D01*
X196074318Y-100117619D02*
X194804318Y-100117619D01*
X194804318Y-100117619D02*
X194985746Y-100238571D01*
X194985746Y-100238571D02*
X195106699Y-100359523D01*
X195106699Y-100359523D02*
X195167175Y-100480476D01*
D10*
X175919999Y-88584819D02*
X175586666Y-88108628D01*
X175348571Y-88584819D02*
X175348571Y-87584819D01*
X175348571Y-87584819D02*
X175729523Y-87584819D01*
X175729523Y-87584819D02*
X175824761Y-87632438D01*
X175824761Y-87632438D02*
X175872380Y-87680057D01*
X175872380Y-87680057D02*
X175919999Y-87775295D01*
X175919999Y-87775295D02*
X175919999Y-87918152D01*
X175919999Y-87918152D02*
X175872380Y-88013390D01*
X175872380Y-88013390D02*
X175824761Y-88061009D01*
X175824761Y-88061009D02*
X175729523Y-88108628D01*
X175729523Y-88108628D02*
X175348571Y-88108628D01*
X176348571Y-87918152D02*
X176348571Y-88918152D01*
X176348571Y-87965771D02*
X176443809Y-87918152D01*
X176443809Y-87918152D02*
X176634285Y-87918152D01*
X176634285Y-87918152D02*
X176729523Y-87965771D01*
X176729523Y-87965771D02*
X176777142Y-88013390D01*
X176777142Y-88013390D02*
X176824761Y-88108628D01*
X176824761Y-88108628D02*
X176824761Y-88394342D01*
X176824761Y-88394342D02*
X176777142Y-88489580D01*
X176777142Y-88489580D02*
X176729523Y-88537200D01*
X176729523Y-88537200D02*
X176634285Y-88584819D01*
X176634285Y-88584819D02*
X176443809Y-88584819D01*
X176443809Y-88584819D02*
X176348571Y-88537200D01*
X177681904Y-87918152D02*
X177681904Y-88584819D01*
X177253333Y-87918152D02*
X177253333Y-88441961D01*
X177253333Y-88441961D02*
X177300952Y-88537200D01*
X177300952Y-88537200D02*
X177396190Y-88584819D01*
X177396190Y-88584819D02*
X177539047Y-88584819D01*
X177539047Y-88584819D02*
X177634285Y-88537200D01*
X177634285Y-88537200D02*
X177681904Y-88489580D01*
X178300952Y-88584819D02*
X178205714Y-88537200D01*
X178205714Y-88537200D02*
X178158095Y-88441961D01*
X178158095Y-88441961D02*
X178158095Y-87584819D01*
X178824762Y-88584819D02*
X178729524Y-88537200D01*
X178729524Y-88537200D02*
X178681905Y-88441961D01*
X178681905Y-88441961D02*
X178681905Y-87584819D01*
X179634286Y-87918152D02*
X179634286Y-88584819D01*
X179205715Y-87918152D02*
X179205715Y-88441961D01*
X179205715Y-88441961D02*
X179253334Y-88537200D01*
X179253334Y-88537200D02*
X179348572Y-88584819D01*
X179348572Y-88584819D02*
X179491429Y-88584819D01*
X179491429Y-88584819D02*
X179586667Y-88537200D01*
X179586667Y-88537200D02*
X179634286Y-88489580D01*
X180110477Y-87918152D02*
X180110477Y-88918152D01*
X180110477Y-87965771D02*
X180205715Y-87918152D01*
X180205715Y-87918152D02*
X180396191Y-87918152D01*
X180396191Y-87918152D02*
X180491429Y-87965771D01*
X180491429Y-87965771D02*
X180539048Y-88013390D01*
X180539048Y-88013390D02*
X180586667Y-88108628D01*
X180586667Y-88108628D02*
X180586667Y-88394342D01*
X180586667Y-88394342D02*
X180539048Y-88489580D01*
X180539048Y-88489580D02*
X180491429Y-88537200D01*
X180491429Y-88537200D02*
X180396191Y-88584819D01*
X180396191Y-88584819D02*
X180205715Y-88584819D01*
X180205715Y-88584819D02*
X180110477Y-88537200D01*
X181539048Y-88584819D02*
X180967620Y-88584819D01*
X181253334Y-88584819D02*
X181253334Y-87584819D01*
X181253334Y-87584819D02*
X181158096Y-87727676D01*
X181158096Y-87727676D02*
X181062858Y-87822914D01*
X181062858Y-87822914D02*
X180967620Y-87870533D01*
X95657122Y-65373019D02*
X95704742Y-65420638D01*
X95704742Y-65420638D02*
X95752361Y-65563495D01*
X95752361Y-65563495D02*
X95752361Y-65658733D01*
X95752361Y-65658733D02*
X95704742Y-65801590D01*
X95704742Y-65801590D02*
X95609503Y-65896828D01*
X95609503Y-65896828D02*
X95514265Y-65944447D01*
X95514265Y-65944447D02*
X95323789Y-65992066D01*
X95323789Y-65992066D02*
X95180932Y-65992066D01*
X95180932Y-65992066D02*
X94990456Y-65944447D01*
X94990456Y-65944447D02*
X94895218Y-65896828D01*
X94895218Y-65896828D02*
X94799980Y-65801590D01*
X94799980Y-65801590D02*
X94752361Y-65658733D01*
X94752361Y-65658733D02*
X94752361Y-65563495D01*
X94752361Y-65563495D02*
X94799980Y-65420638D01*
X94799980Y-65420638D02*
X94847599Y-65373019D01*
X94752361Y-64753971D02*
X94752361Y-64563495D01*
X94752361Y-64563495D02*
X94799980Y-64468257D01*
X94799980Y-64468257D02*
X94895218Y-64373019D01*
X94895218Y-64373019D02*
X95085694Y-64325400D01*
X95085694Y-64325400D02*
X95419027Y-64325400D01*
X95419027Y-64325400D02*
X95609503Y-64373019D01*
X95609503Y-64373019D02*
X95704742Y-64468257D01*
X95704742Y-64468257D02*
X95752361Y-64563495D01*
X95752361Y-64563495D02*
X95752361Y-64753971D01*
X95752361Y-64753971D02*
X95704742Y-64849209D01*
X95704742Y-64849209D02*
X95609503Y-64944447D01*
X95609503Y-64944447D02*
X95419027Y-64992066D01*
X95419027Y-64992066D02*
X95085694Y-64992066D01*
X95085694Y-64992066D02*
X94895218Y-64944447D01*
X94895218Y-64944447D02*
X94799980Y-64849209D01*
X94799980Y-64849209D02*
X94752361Y-64753971D01*
X95752361Y-63896828D02*
X94752361Y-63896828D01*
X95752361Y-62944448D02*
X95752361Y-63420638D01*
X95752361Y-63420638D02*
X94752361Y-63420638D01*
X95847599Y-62849210D02*
X95847599Y-62087305D01*
X95752361Y-61849209D02*
X94752361Y-61849209D01*
X95752361Y-61373019D02*
X94752361Y-61373019D01*
X94752361Y-61373019D02*
X95752361Y-60801591D01*
X95752361Y-60801591D02*
X94752361Y-60801591D01*
X95752361Y-59801591D02*
X95752361Y-60373019D01*
X95752361Y-60087305D02*
X94752361Y-60087305D01*
X94752361Y-60087305D02*
X94895218Y-60182543D01*
X94895218Y-60182543D02*
X94990456Y-60277781D01*
X94990456Y-60277781D02*
X95038075Y-60373019D01*
X116596113Y-113506409D02*
X116548494Y-113554029D01*
X116548494Y-113554029D02*
X116405637Y-113601648D01*
X116405637Y-113601648D02*
X116310399Y-113601648D01*
X116310399Y-113601648D02*
X116167542Y-113554029D01*
X116167542Y-113554029D02*
X116072304Y-113458790D01*
X116072304Y-113458790D02*
X116024685Y-113363552D01*
X116024685Y-113363552D02*
X115977066Y-113173076D01*
X115977066Y-113173076D02*
X115977066Y-113030219D01*
X115977066Y-113030219D02*
X116024685Y-112839743D01*
X116024685Y-112839743D02*
X116072304Y-112744505D01*
X116072304Y-112744505D02*
X116167542Y-112649267D01*
X116167542Y-112649267D02*
X116310399Y-112601648D01*
X116310399Y-112601648D02*
X116405637Y-112601648D01*
X116405637Y-112601648D02*
X116548494Y-112649267D01*
X116548494Y-112649267D02*
X116596113Y-112696886D01*
X117024685Y-113601648D02*
X117024685Y-112601648D01*
X117024685Y-112982600D02*
X117119923Y-112934981D01*
X117119923Y-112934981D02*
X117310399Y-112934981D01*
X117310399Y-112934981D02*
X117405637Y-112982600D01*
X117405637Y-112982600D02*
X117453256Y-113030219D01*
X117453256Y-113030219D02*
X117500875Y-113125457D01*
X117500875Y-113125457D02*
X117500875Y-113411171D01*
X117500875Y-113411171D02*
X117453256Y-113506409D01*
X117453256Y-113506409D02*
X117405637Y-113554029D01*
X117405637Y-113554029D02*
X117310399Y-113601648D01*
X117310399Y-113601648D02*
X117119923Y-113601648D01*
X117119923Y-113601648D02*
X117024685Y-113554029D01*
X117929447Y-112934981D02*
X117929447Y-113934981D01*
X117929447Y-112982600D02*
X118024685Y-112934981D01*
X118024685Y-112934981D02*
X118215161Y-112934981D01*
X118215161Y-112934981D02*
X118310399Y-112982600D01*
X118310399Y-112982600D02*
X118358018Y-113030219D01*
X118358018Y-113030219D02*
X118405637Y-113125457D01*
X118405637Y-113125457D02*
X118405637Y-113411171D01*
X118405637Y-113411171D02*
X118358018Y-113506409D01*
X118358018Y-113506409D02*
X118310399Y-113554029D01*
X118310399Y-113554029D02*
X118215161Y-113601648D01*
X118215161Y-113601648D02*
X118024685Y-113601648D01*
X118024685Y-113601648D02*
X117929447Y-113554029D01*
X119262780Y-112934981D02*
X119262780Y-113601648D01*
X119024685Y-112554029D02*
X118786590Y-113268314D01*
X118786590Y-113268314D02*
X119405637Y-113268314D01*
X168587779Y-71346648D02*
X168254446Y-70870457D01*
X168016351Y-71346648D02*
X168016351Y-70346648D01*
X168016351Y-70346648D02*
X168397303Y-70346648D01*
X168397303Y-70346648D02*
X168492541Y-70394267D01*
X168492541Y-70394267D02*
X168540160Y-70441886D01*
X168540160Y-70441886D02*
X168587779Y-70537124D01*
X168587779Y-70537124D02*
X168587779Y-70679981D01*
X168587779Y-70679981D02*
X168540160Y-70775219D01*
X168540160Y-70775219D02*
X168492541Y-70822838D01*
X168492541Y-70822838D02*
X168397303Y-70870457D01*
X168397303Y-70870457D02*
X168016351Y-70870457D01*
X168873494Y-70679981D02*
X169254446Y-70679981D01*
X169016351Y-70346648D02*
X169016351Y-71203790D01*
X169016351Y-71203790D02*
X169063970Y-71299029D01*
X169063970Y-71299029D02*
X169159208Y-71346648D01*
X169159208Y-71346648D02*
X169254446Y-71346648D01*
X169587780Y-71346648D02*
X169587780Y-70346648D01*
X170016351Y-71346648D02*
X170016351Y-70822838D01*
X170016351Y-70822838D02*
X169968732Y-70727600D01*
X169968732Y-70727600D02*
X169873494Y-70679981D01*
X169873494Y-70679981D02*
X169730637Y-70679981D01*
X169730637Y-70679981D02*
X169635399Y-70727600D01*
X169635399Y-70727600D02*
X169587780Y-70775219D01*
X171016351Y-71346648D02*
X170444923Y-71346648D01*
X170730637Y-71346648D02*
X170730637Y-70346648D01*
X170730637Y-70346648D02*
X170635399Y-70489505D01*
X170635399Y-70489505D02*
X170540161Y-70584743D01*
X170540161Y-70584743D02*
X170444923Y-70632362D01*
X146560398Y-73006409D02*
X146512779Y-73054029D01*
X146512779Y-73054029D02*
X146369922Y-73101648D01*
X146369922Y-73101648D02*
X146274684Y-73101648D01*
X146274684Y-73101648D02*
X146131827Y-73054029D01*
X146131827Y-73054029D02*
X146036589Y-72958790D01*
X146036589Y-72958790D02*
X145988970Y-72863552D01*
X145988970Y-72863552D02*
X145941351Y-72673076D01*
X145941351Y-72673076D02*
X145941351Y-72530219D01*
X145941351Y-72530219D02*
X145988970Y-72339743D01*
X145988970Y-72339743D02*
X146036589Y-72244505D01*
X146036589Y-72244505D02*
X146131827Y-72149267D01*
X146131827Y-72149267D02*
X146274684Y-72101648D01*
X146274684Y-72101648D02*
X146369922Y-72101648D01*
X146369922Y-72101648D02*
X146512779Y-72149267D01*
X146512779Y-72149267D02*
X146560398Y-72196886D01*
X146988970Y-73101648D02*
X146988970Y-72101648D01*
X147417541Y-73101648D02*
X147417541Y-72577838D01*
X147417541Y-72577838D02*
X147369922Y-72482600D01*
X147369922Y-72482600D02*
X147274684Y-72434981D01*
X147274684Y-72434981D02*
X147131827Y-72434981D01*
X147131827Y-72434981D02*
X147036589Y-72482600D01*
X147036589Y-72482600D02*
X146988970Y-72530219D01*
X147893732Y-72434981D02*
X147893732Y-73434981D01*
X147893732Y-72482600D02*
X147988970Y-72434981D01*
X147988970Y-72434981D02*
X148179446Y-72434981D01*
X148179446Y-72434981D02*
X148274684Y-72482600D01*
X148274684Y-72482600D02*
X148322303Y-72530219D01*
X148322303Y-72530219D02*
X148369922Y-72625457D01*
X148369922Y-72625457D02*
X148369922Y-72911171D01*
X148369922Y-72911171D02*
X148322303Y-73006409D01*
X148322303Y-73006409D02*
X148274684Y-73054029D01*
X148274684Y-73054029D02*
X148179446Y-73101648D01*
X148179446Y-73101648D02*
X147988970Y-73101648D01*
X147988970Y-73101648D02*
X147893732Y-73054029D01*
X148655637Y-72434981D02*
X149036589Y-72434981D01*
X148798494Y-73101648D02*
X148798494Y-72244505D01*
X148798494Y-72244505D02*
X148846113Y-72149267D01*
X148846113Y-72149267D02*
X148941351Y-72101648D01*
X148941351Y-72101648D02*
X149036589Y-72101648D01*
X149893732Y-73101648D02*
X149322304Y-73101648D01*
X149608018Y-73101648D02*
X149608018Y-72101648D01*
X149608018Y-72101648D02*
X149512780Y-72244505D01*
X149512780Y-72244505D02*
X149417542Y-72339743D01*
X149417542Y-72339743D02*
X149322304Y-72387362D01*
X130810160Y-71231648D02*
X130476827Y-70755457D01*
X130238732Y-71231648D02*
X130238732Y-70231648D01*
X130238732Y-70231648D02*
X130619684Y-70231648D01*
X130619684Y-70231648D02*
X130714922Y-70279267D01*
X130714922Y-70279267D02*
X130762541Y-70326886D01*
X130762541Y-70326886D02*
X130810160Y-70422124D01*
X130810160Y-70422124D02*
X130810160Y-70564981D01*
X130810160Y-70564981D02*
X130762541Y-70660219D01*
X130762541Y-70660219D02*
X130714922Y-70707838D01*
X130714922Y-70707838D02*
X130619684Y-70755457D01*
X130619684Y-70755457D02*
X130238732Y-70755457D01*
X131095875Y-70564981D02*
X131476827Y-70564981D01*
X131238732Y-71231648D02*
X131238732Y-70374505D01*
X131238732Y-70374505D02*
X131286351Y-70279267D01*
X131286351Y-70279267D02*
X131381589Y-70231648D01*
X131381589Y-70231648D02*
X131476827Y-70231648D01*
X132333970Y-71231648D02*
X131762542Y-71231648D01*
X132048256Y-71231648D02*
X132048256Y-70231648D01*
X132048256Y-70231648D02*
X131953018Y-70374505D01*
X131953018Y-70374505D02*
X131857780Y-70469743D01*
X131857780Y-70469743D02*
X131762542Y-70517362D01*
X130742361Y-63813495D02*
X130266170Y-64146828D01*
X130742361Y-64384923D02*
X129742361Y-64384923D01*
X129742361Y-64384923D02*
X129742361Y-64003971D01*
X129742361Y-64003971D02*
X129789980Y-63908733D01*
X129789980Y-63908733D02*
X129837599Y-63861114D01*
X129837599Y-63861114D02*
X129932837Y-63813495D01*
X129932837Y-63813495D02*
X130075694Y-63813495D01*
X130075694Y-63813495D02*
X130170932Y-63861114D01*
X130170932Y-63861114D02*
X130218551Y-63908733D01*
X130218551Y-63908733D02*
X130266170Y-64003971D01*
X130266170Y-64003971D02*
X130266170Y-64384923D01*
X130742361Y-62861114D02*
X130742361Y-63432542D01*
X130742361Y-63146828D02*
X129742361Y-63146828D01*
X129742361Y-63146828D02*
X129885218Y-63242066D01*
X129885218Y-63242066D02*
X129980456Y-63337304D01*
X129980456Y-63337304D02*
X130028075Y-63432542D01*
X136873494Y-85846648D02*
X136540161Y-85370457D01*
X136302066Y-85846648D02*
X136302066Y-84846648D01*
X136302066Y-84846648D02*
X136683018Y-84846648D01*
X136683018Y-84846648D02*
X136778256Y-84894267D01*
X136778256Y-84894267D02*
X136825875Y-84941886D01*
X136825875Y-84941886D02*
X136873494Y-85037124D01*
X136873494Y-85037124D02*
X136873494Y-85179981D01*
X136873494Y-85179981D02*
X136825875Y-85275219D01*
X136825875Y-85275219D02*
X136778256Y-85322838D01*
X136778256Y-85322838D02*
X136683018Y-85370457D01*
X136683018Y-85370457D02*
X136302066Y-85370457D01*
X137730637Y-85179981D02*
X137730637Y-85989505D01*
X137730637Y-85989505D02*
X137683018Y-86084743D01*
X137683018Y-86084743D02*
X137635399Y-86132362D01*
X137635399Y-86132362D02*
X137540161Y-86179981D01*
X137540161Y-86179981D02*
X137397304Y-86179981D01*
X137397304Y-86179981D02*
X137302066Y-86132362D01*
X137730637Y-85799029D02*
X137635399Y-85846648D01*
X137635399Y-85846648D02*
X137444923Y-85846648D01*
X137444923Y-85846648D02*
X137349685Y-85799029D01*
X137349685Y-85799029D02*
X137302066Y-85751409D01*
X137302066Y-85751409D02*
X137254447Y-85656171D01*
X137254447Y-85656171D02*
X137254447Y-85370457D01*
X137254447Y-85370457D02*
X137302066Y-85275219D01*
X137302066Y-85275219D02*
X137349685Y-85227600D01*
X137349685Y-85227600D02*
X137444923Y-85179981D01*
X137444923Y-85179981D02*
X137635399Y-85179981D01*
X137635399Y-85179981D02*
X137730637Y-85227600D01*
X138730637Y-85846648D02*
X138159209Y-85846648D01*
X138444923Y-85846648D02*
X138444923Y-84846648D01*
X138444923Y-84846648D02*
X138349685Y-84989505D01*
X138349685Y-84989505D02*
X138254447Y-85084743D01*
X138254447Y-85084743D02*
X138159209Y-85132362D01*
X111310399Y-102006409D02*
X111262780Y-102054029D01*
X111262780Y-102054029D02*
X111119923Y-102101648D01*
X111119923Y-102101648D02*
X111024685Y-102101648D01*
X111024685Y-102101648D02*
X110881828Y-102054029D01*
X110881828Y-102054029D02*
X110786590Y-101958790D01*
X110786590Y-101958790D02*
X110738971Y-101863552D01*
X110738971Y-101863552D02*
X110691352Y-101673076D01*
X110691352Y-101673076D02*
X110691352Y-101530219D01*
X110691352Y-101530219D02*
X110738971Y-101339743D01*
X110738971Y-101339743D02*
X110786590Y-101244505D01*
X110786590Y-101244505D02*
X110881828Y-101149267D01*
X110881828Y-101149267D02*
X111024685Y-101101648D01*
X111024685Y-101101648D02*
X111119923Y-101101648D01*
X111119923Y-101101648D02*
X111262780Y-101149267D01*
X111262780Y-101149267D02*
X111310399Y-101196886D01*
X111738971Y-102101648D02*
X111738971Y-101434981D01*
X111738971Y-101101648D02*
X111691352Y-101149267D01*
X111691352Y-101149267D02*
X111738971Y-101196886D01*
X111738971Y-101196886D02*
X111786590Y-101149267D01*
X111786590Y-101149267D02*
X111738971Y-101101648D01*
X111738971Y-101101648D02*
X111738971Y-101196886D01*
X112215161Y-101434981D02*
X112215161Y-102101648D01*
X112215161Y-101530219D02*
X112262780Y-101482600D01*
X112262780Y-101482600D02*
X112358018Y-101434981D01*
X112358018Y-101434981D02*
X112500875Y-101434981D01*
X112500875Y-101434981D02*
X112596113Y-101482600D01*
X112596113Y-101482600D02*
X112643732Y-101577838D01*
X112643732Y-101577838D02*
X112643732Y-102101648D01*
X113643732Y-102101648D02*
X113072304Y-102101648D01*
X113358018Y-102101648D02*
X113358018Y-101101648D01*
X113358018Y-101101648D02*
X113262780Y-101244505D01*
X113262780Y-101244505D02*
X113167542Y-101339743D01*
X113167542Y-101339743D02*
X113072304Y-101387362D01*
X152500637Y-82216648D02*
X152500637Y-83026171D01*
X152500637Y-83026171D02*
X152548256Y-83121409D01*
X152548256Y-83121409D02*
X152595875Y-83169029D01*
X152595875Y-83169029D02*
X152691113Y-83216648D01*
X152691113Y-83216648D02*
X152881589Y-83216648D01*
X152881589Y-83216648D02*
X152976827Y-83169029D01*
X152976827Y-83169029D02*
X153024446Y-83121409D01*
X153024446Y-83121409D02*
X153072065Y-83026171D01*
X153072065Y-83026171D02*
X153072065Y-82216648D01*
X154072065Y-83216648D02*
X153500637Y-83216648D01*
X153786351Y-83216648D02*
X153786351Y-82216648D01*
X153786351Y-82216648D02*
X153691113Y-82359505D01*
X153691113Y-82359505D02*
X153595875Y-82454743D01*
X153595875Y-82454743D02*
X153500637Y-82502362D01*
X149452542Y-76895348D02*
X149452542Y-77133443D01*
X149214447Y-77038205D02*
X149452542Y-77133443D01*
X149452542Y-77133443D02*
X149690637Y-77038205D01*
X149309685Y-77323919D02*
X149452542Y-77133443D01*
X149452542Y-77133443D02*
X149595399Y-77323919D01*
X149452542Y-76895348D02*
X149452542Y-77133443D01*
X149214447Y-77038205D02*
X149452542Y-77133443D01*
X149452542Y-77133443D02*
X149690637Y-77038205D01*
X149309685Y-77323919D02*
X149452542Y-77133443D01*
X149452542Y-77133443D02*
X149595399Y-77323919D01*
X161869447Y-64221648D02*
X161869447Y-63221648D01*
X161869447Y-63221648D02*
X162107542Y-63221648D01*
X162107542Y-63221648D02*
X162250399Y-63269267D01*
X162250399Y-63269267D02*
X162345637Y-63364505D01*
X162345637Y-63364505D02*
X162393256Y-63459743D01*
X162393256Y-63459743D02*
X162440875Y-63650219D01*
X162440875Y-63650219D02*
X162440875Y-63793076D01*
X162440875Y-63793076D02*
X162393256Y-63983552D01*
X162393256Y-63983552D02*
X162345637Y-64078790D01*
X162345637Y-64078790D02*
X162250399Y-64174029D01*
X162250399Y-64174029D02*
X162107542Y-64221648D01*
X162107542Y-64221648D02*
X161869447Y-64221648D01*
X163298018Y-63554981D02*
X163298018Y-64221648D01*
X163059923Y-63174029D02*
X162821828Y-63888314D01*
X162821828Y-63888314D02*
X163440875Y-63888314D01*
X166155637Y-63901648D02*
X166155637Y-62901648D01*
X166727065Y-63901648D02*
X166298494Y-63330219D01*
X166727065Y-62901648D02*
X166155637Y-63473076D01*
X158491428Y-111324819D02*
X158158095Y-110848628D01*
X157920000Y-111324819D02*
X157920000Y-110324819D01*
X157920000Y-110324819D02*
X158300952Y-110324819D01*
X158300952Y-110324819D02*
X158396190Y-110372438D01*
X158396190Y-110372438D02*
X158443809Y-110420057D01*
X158443809Y-110420057D02*
X158491428Y-110515295D01*
X158491428Y-110515295D02*
X158491428Y-110658152D01*
X158491428Y-110658152D02*
X158443809Y-110753390D01*
X158443809Y-110753390D02*
X158396190Y-110801009D01*
X158396190Y-110801009D02*
X158300952Y-110848628D01*
X158300952Y-110848628D02*
X157920000Y-110848628D01*
X158777143Y-110658152D02*
X159158095Y-110658152D01*
X158920000Y-111324819D02*
X158920000Y-110467676D01*
X158920000Y-110467676D02*
X158967619Y-110372438D01*
X158967619Y-110372438D02*
X159062857Y-110324819D01*
X159062857Y-110324819D02*
X159158095Y-110324819D01*
X159443810Y-110420057D02*
X159491429Y-110372438D01*
X159491429Y-110372438D02*
X159586667Y-110324819D01*
X159586667Y-110324819D02*
X159824762Y-110324819D01*
X159824762Y-110324819D02*
X159920000Y-110372438D01*
X159920000Y-110372438D02*
X159967619Y-110420057D01*
X159967619Y-110420057D02*
X160015238Y-110515295D01*
X160015238Y-110515295D02*
X160015238Y-110610533D01*
X160015238Y-110610533D02*
X159967619Y-110753390D01*
X159967619Y-110753390D02*
X159396191Y-111324819D01*
X159396191Y-111324819D02*
X160015238Y-111324819D01*
X160396191Y-110420057D02*
X160443810Y-110372438D01*
X160443810Y-110372438D02*
X160539048Y-110324819D01*
X160539048Y-110324819D02*
X160777143Y-110324819D01*
X160777143Y-110324819D02*
X160872381Y-110372438D01*
X160872381Y-110372438D02*
X160920000Y-110420057D01*
X160920000Y-110420057D02*
X160967619Y-110515295D01*
X160967619Y-110515295D02*
X160967619Y-110610533D01*
X160967619Y-110610533D02*
X160920000Y-110753390D01*
X160920000Y-110753390D02*
X160348572Y-111324819D01*
X160348572Y-111324819D02*
X160967619Y-111324819D01*
X111777122Y-86313495D02*
X111824742Y-86361114D01*
X111824742Y-86361114D02*
X111872361Y-86503971D01*
X111872361Y-86503971D02*
X111872361Y-86599209D01*
X111872361Y-86599209D02*
X111824742Y-86742066D01*
X111824742Y-86742066D02*
X111729503Y-86837304D01*
X111729503Y-86837304D02*
X111634265Y-86884923D01*
X111634265Y-86884923D02*
X111443789Y-86932542D01*
X111443789Y-86932542D02*
X111300932Y-86932542D01*
X111300932Y-86932542D02*
X111110456Y-86884923D01*
X111110456Y-86884923D02*
X111015218Y-86837304D01*
X111015218Y-86837304D02*
X110919980Y-86742066D01*
X110919980Y-86742066D02*
X110872361Y-86599209D01*
X110872361Y-86599209D02*
X110872361Y-86503971D01*
X110872361Y-86503971D02*
X110919980Y-86361114D01*
X110919980Y-86361114D02*
X110967599Y-86313495D01*
X110872361Y-85408733D02*
X110872361Y-85884923D01*
X110872361Y-85884923D02*
X111348551Y-85932542D01*
X111348551Y-85932542D02*
X111300932Y-85884923D01*
X111300932Y-85884923D02*
X111253313Y-85789685D01*
X111253313Y-85789685D02*
X111253313Y-85551590D01*
X111253313Y-85551590D02*
X111300932Y-85456352D01*
X111300932Y-85456352D02*
X111348551Y-85408733D01*
X111348551Y-85408733D02*
X111443789Y-85361114D01*
X111443789Y-85361114D02*
X111681884Y-85361114D01*
X111681884Y-85361114D02*
X111777122Y-85408733D01*
X111777122Y-85408733D02*
X111824742Y-85456352D01*
X111824742Y-85456352D02*
X111872361Y-85551590D01*
X111872361Y-85551590D02*
X111872361Y-85789685D01*
X111872361Y-85789685D02*
X111824742Y-85884923D01*
X111824742Y-85884923D02*
X111777122Y-85932542D01*
X168261905Y-105074819D02*
X168261905Y-104074819D01*
X168261905Y-104074819D02*
X168500000Y-104074819D01*
X168500000Y-104074819D02*
X168642857Y-104122438D01*
X168642857Y-104122438D02*
X168738095Y-104217676D01*
X168738095Y-104217676D02*
X168785714Y-104312914D01*
X168785714Y-104312914D02*
X168833333Y-104503390D01*
X168833333Y-104503390D02*
X168833333Y-104646247D01*
X168833333Y-104646247D02*
X168785714Y-104836723D01*
X168785714Y-104836723D02*
X168738095Y-104931961D01*
X168738095Y-104931961D02*
X168642857Y-105027200D01*
X168642857Y-105027200D02*
X168500000Y-105074819D01*
X168500000Y-105074819D02*
X168261905Y-105074819D01*
X169738095Y-104074819D02*
X169261905Y-104074819D01*
X169261905Y-104074819D02*
X169214286Y-104551009D01*
X169214286Y-104551009D02*
X169261905Y-104503390D01*
X169261905Y-104503390D02*
X169357143Y-104455771D01*
X169357143Y-104455771D02*
X169595238Y-104455771D01*
X169595238Y-104455771D02*
X169690476Y-104503390D01*
X169690476Y-104503390D02*
X169738095Y-104551009D01*
X169738095Y-104551009D02*
X169785714Y-104646247D01*
X169785714Y-104646247D02*
X169785714Y-104884342D01*
X169785714Y-104884342D02*
X169738095Y-104979580D01*
X169738095Y-104979580D02*
X169690476Y-105027200D01*
X169690476Y-105027200D02*
X169595238Y-105074819D01*
X169595238Y-105074819D02*
X169357143Y-105074819D01*
X169357143Y-105074819D02*
X169261905Y-105027200D01*
X169261905Y-105027200D02*
X169214286Y-104979580D01*
X172548095Y-104754819D02*
X172548095Y-103754819D01*
X173119523Y-104754819D02*
X172690952Y-104183390D01*
X173119523Y-103754819D02*
X172548095Y-104326247D01*
D11*
X98528732Y-110721147D02*
X98528732Y-109451147D01*
X98528732Y-109451147D02*
X98952066Y-110358290D01*
X98952066Y-110358290D02*
X99375399Y-109451147D01*
X99375399Y-109451147D02*
X99375399Y-110721147D01*
X99919685Y-110358290D02*
X100524447Y-110358290D01*
X99798733Y-110721147D02*
X100222066Y-109451147D01*
X100222066Y-109451147D02*
X100645400Y-110721147D01*
X101733971Y-109511623D02*
X101613018Y-109451147D01*
X101613018Y-109451147D02*
X101431590Y-109451147D01*
X101431590Y-109451147D02*
X101250161Y-109511623D01*
X101250161Y-109511623D02*
X101129209Y-109632575D01*
X101129209Y-109632575D02*
X101068732Y-109753528D01*
X101068732Y-109753528D02*
X101008256Y-109995432D01*
X101008256Y-109995432D02*
X101008256Y-110176861D01*
X101008256Y-110176861D02*
X101068732Y-110418766D01*
X101068732Y-110418766D02*
X101129209Y-110539718D01*
X101129209Y-110539718D02*
X101250161Y-110660671D01*
X101250161Y-110660671D02*
X101431590Y-110721147D01*
X101431590Y-110721147D02*
X101552542Y-110721147D01*
X101552542Y-110721147D02*
X101733971Y-110660671D01*
X101733971Y-110660671D02*
X101794447Y-110600194D01*
X101794447Y-110600194D02*
X101794447Y-110176861D01*
X101794447Y-110176861D02*
X101552542Y-110176861D01*
X102036352Y-110842099D02*
X103003971Y-110842099D01*
X103306351Y-110721147D02*
X103306351Y-109451147D01*
X103911113Y-110721147D02*
X103911113Y-109451147D01*
X103911113Y-109451147D02*
X104636828Y-110721147D01*
X104636828Y-110721147D02*
X104636828Y-109451147D01*
X105906828Y-110721147D02*
X105181113Y-110721147D01*
X105543970Y-110721147D02*
X105543970Y-109451147D01*
X105543970Y-109451147D02*
X105423018Y-109632575D01*
X105423018Y-109632575D02*
X105302066Y-109753528D01*
X105302066Y-109753528D02*
X105181113Y-109814004D01*
D10*
X155242361Y-63813495D02*
X154766170Y-64146828D01*
X155242361Y-64384923D02*
X154242361Y-64384923D01*
X154242361Y-64384923D02*
X154242361Y-64003971D01*
X154242361Y-64003971D02*
X154289980Y-63908733D01*
X154289980Y-63908733D02*
X154337599Y-63861114D01*
X154337599Y-63861114D02*
X154432837Y-63813495D01*
X154432837Y-63813495D02*
X154575694Y-63813495D01*
X154575694Y-63813495D02*
X154670932Y-63861114D01*
X154670932Y-63861114D02*
X154718551Y-63908733D01*
X154718551Y-63908733D02*
X154766170Y-64003971D01*
X154766170Y-64003971D02*
X154766170Y-64384923D01*
X154242361Y-63480161D02*
X154242361Y-62861114D01*
X154242361Y-62861114D02*
X154623313Y-63194447D01*
X154623313Y-63194447D02*
X154623313Y-63051590D01*
X154623313Y-63051590D02*
X154670932Y-62956352D01*
X154670932Y-62956352D02*
X154718551Y-62908733D01*
X154718551Y-62908733D02*
X154813789Y-62861114D01*
X154813789Y-62861114D02*
X155051884Y-62861114D01*
X155051884Y-62861114D02*
X155147122Y-62908733D01*
X155147122Y-62908733D02*
X155194742Y-62956352D01*
X155194742Y-62956352D02*
X155242361Y-63051590D01*
X155242361Y-63051590D02*
X155242361Y-63337304D01*
X155242361Y-63337304D02*
X155194742Y-63432542D01*
X155194742Y-63432542D02*
X155147122Y-63480161D01*
X153071428Y-105324819D02*
X152738095Y-104848628D01*
X152500000Y-105324819D02*
X152500000Y-104324819D01*
X152500000Y-104324819D02*
X152880952Y-104324819D01*
X152880952Y-104324819D02*
X152976190Y-104372438D01*
X152976190Y-104372438D02*
X153023809Y-104420057D01*
X153023809Y-104420057D02*
X153071428Y-104515295D01*
X153071428Y-104515295D02*
X153071428Y-104658152D01*
X153071428Y-104658152D02*
X153023809Y-104753390D01*
X153023809Y-104753390D02*
X152976190Y-104801009D01*
X152976190Y-104801009D02*
X152880952Y-104848628D01*
X152880952Y-104848628D02*
X152500000Y-104848628D01*
X153357143Y-104658152D02*
X153738095Y-104658152D01*
X153500000Y-105324819D02*
X153500000Y-104467676D01*
X153500000Y-104467676D02*
X153547619Y-104372438D01*
X153547619Y-104372438D02*
X153642857Y-104324819D01*
X153642857Y-104324819D02*
X153738095Y-104324819D01*
X154023810Y-104420057D02*
X154071429Y-104372438D01*
X154071429Y-104372438D02*
X154166667Y-104324819D01*
X154166667Y-104324819D02*
X154404762Y-104324819D01*
X154404762Y-104324819D02*
X154500000Y-104372438D01*
X154500000Y-104372438D02*
X154547619Y-104420057D01*
X154547619Y-104420057D02*
X154595238Y-104515295D01*
X154595238Y-104515295D02*
X154595238Y-104610533D01*
X154595238Y-104610533D02*
X154547619Y-104753390D01*
X154547619Y-104753390D02*
X153976191Y-105324819D01*
X153976191Y-105324819D02*
X154595238Y-105324819D01*
X155547619Y-105324819D02*
X154976191Y-105324819D01*
X155261905Y-105324819D02*
X155261905Y-104324819D01*
X155261905Y-104324819D02*
X155166667Y-104467676D01*
X155166667Y-104467676D02*
X155071429Y-104562914D01*
X155071429Y-104562914D02*
X154976191Y-104610533D01*
X94752361Y-101277780D02*
X95561884Y-101277780D01*
X95561884Y-101277780D02*
X95657122Y-101230161D01*
X95657122Y-101230161D02*
X95704742Y-101182542D01*
X95704742Y-101182542D02*
X95752361Y-101087304D01*
X95752361Y-101087304D02*
X95752361Y-100896828D01*
X95752361Y-100896828D02*
X95704742Y-100801590D01*
X95704742Y-100801590D02*
X95657122Y-100753971D01*
X95657122Y-100753971D02*
X95561884Y-100706352D01*
X95561884Y-100706352D02*
X94752361Y-100706352D01*
X95704742Y-100277780D02*
X95752361Y-100134923D01*
X95752361Y-100134923D02*
X95752361Y-99896828D01*
X95752361Y-99896828D02*
X95704742Y-99801590D01*
X95704742Y-99801590D02*
X95657122Y-99753971D01*
X95657122Y-99753971D02*
X95561884Y-99706352D01*
X95561884Y-99706352D02*
X95466646Y-99706352D01*
X95466646Y-99706352D02*
X95371408Y-99753971D01*
X95371408Y-99753971D02*
X95323789Y-99801590D01*
X95323789Y-99801590D02*
X95276170Y-99896828D01*
X95276170Y-99896828D02*
X95228551Y-100087304D01*
X95228551Y-100087304D02*
X95180932Y-100182542D01*
X95180932Y-100182542D02*
X95133313Y-100230161D01*
X95133313Y-100230161D02*
X95038075Y-100277780D01*
X95038075Y-100277780D02*
X94942837Y-100277780D01*
X94942837Y-100277780D02*
X94847599Y-100230161D01*
X94847599Y-100230161D02*
X94799980Y-100182542D01*
X94799980Y-100182542D02*
X94752361Y-100087304D01*
X94752361Y-100087304D02*
X94752361Y-99849209D01*
X94752361Y-99849209D02*
X94799980Y-99706352D01*
X95847599Y-99515876D02*
X95847599Y-98753971D01*
X95752361Y-98515875D02*
X94752361Y-98515875D01*
X95752361Y-98039685D02*
X94752361Y-98039685D01*
X94752361Y-98039685D02*
X95752361Y-97468257D01*
X95752361Y-97468257D02*
X94752361Y-97468257D01*
X95752361Y-96468257D02*
X95752361Y-97039685D01*
X95752361Y-96753971D02*
X94752361Y-96753971D01*
X94752361Y-96753971D02*
X94895218Y-96849209D01*
X94895218Y-96849209D02*
X94990456Y-96944447D01*
X94990456Y-96944447D02*
X95038075Y-97039685D01*
X173738095Y-81454819D02*
X173738095Y-82264342D01*
X173738095Y-82264342D02*
X173785714Y-82359580D01*
X173785714Y-82359580D02*
X173833333Y-82407200D01*
X173833333Y-82407200D02*
X173928571Y-82454819D01*
X173928571Y-82454819D02*
X174119047Y-82454819D01*
X174119047Y-82454819D02*
X174214285Y-82407200D01*
X174214285Y-82407200D02*
X174261904Y-82359580D01*
X174261904Y-82359580D02*
X174309523Y-82264342D01*
X174309523Y-82264342D02*
X174309523Y-81454819D01*
X174738095Y-81550057D02*
X174785714Y-81502438D01*
X174785714Y-81502438D02*
X174880952Y-81454819D01*
X174880952Y-81454819D02*
X175119047Y-81454819D01*
X175119047Y-81454819D02*
X175214285Y-81502438D01*
X175214285Y-81502438D02*
X175261904Y-81550057D01*
X175261904Y-81550057D02*
X175309523Y-81645295D01*
X175309523Y-81645295D02*
X175309523Y-81740533D01*
X175309523Y-81740533D02*
X175261904Y-81883390D01*
X175261904Y-81883390D02*
X174690476Y-82454819D01*
X174690476Y-82454819D02*
X175309523Y-82454819D01*
X170690000Y-76197019D02*
X170690000Y-76435114D01*
X170451905Y-76339876D02*
X170690000Y-76435114D01*
X170690000Y-76435114D02*
X170928095Y-76339876D01*
X170547143Y-76625590D02*
X170690000Y-76435114D01*
X170690000Y-76435114D02*
X170832857Y-76625590D01*
X170690000Y-76197019D02*
X170690000Y-76435114D01*
X170451905Y-76339876D02*
X170690000Y-76435114D01*
X170690000Y-76435114D02*
X170928095Y-76339876D01*
X170547143Y-76625590D02*
X170690000Y-76435114D01*
X170690000Y-76435114D02*
X170832857Y-76625590D01*
D11*
X194491860Y-68086353D02*
X193221860Y-68086353D01*
X193221860Y-68086353D02*
X193221860Y-67602543D01*
X193221860Y-67602543D02*
X193282336Y-67481591D01*
X193282336Y-67481591D02*
X193342812Y-67421114D01*
X193342812Y-67421114D02*
X193463764Y-67360638D01*
X193463764Y-67360638D02*
X193645193Y-67360638D01*
X193645193Y-67360638D02*
X193766145Y-67421114D01*
X193766145Y-67421114D02*
X193826622Y-67481591D01*
X193826622Y-67481591D02*
X193887098Y-67602543D01*
X193887098Y-67602543D02*
X193887098Y-68086353D01*
X193221860Y-66937305D02*
X194491860Y-66634924D01*
X194491860Y-66634924D02*
X193584717Y-66393019D01*
X193584717Y-66393019D02*
X194491860Y-66151114D01*
X194491860Y-66151114D02*
X193221860Y-65848734D01*
X194491860Y-64639209D02*
X193887098Y-65062543D01*
X194491860Y-65364924D02*
X193221860Y-65364924D01*
X193221860Y-65364924D02*
X193221860Y-64881114D01*
X193221860Y-64881114D02*
X193282336Y-64760162D01*
X193282336Y-64760162D02*
X193342812Y-64699685D01*
X193342812Y-64699685D02*
X193463764Y-64639209D01*
X193463764Y-64639209D02*
X193645193Y-64639209D01*
X193645193Y-64639209D02*
X193766145Y-64699685D01*
X193766145Y-64699685D02*
X193826622Y-64760162D01*
X193826622Y-64760162D02*
X193887098Y-64881114D01*
X193887098Y-64881114D02*
X193887098Y-65364924D01*
X194612812Y-64397305D02*
X194612812Y-63429685D01*
X194491860Y-63127305D02*
X193221860Y-63127305D01*
X194491860Y-62522543D02*
X193221860Y-62522543D01*
X193221860Y-62522543D02*
X194491860Y-61796828D01*
X194491860Y-61796828D02*
X193221860Y-61796828D01*
X194491860Y-60526828D02*
X194491860Y-61252543D01*
X194491860Y-60889686D02*
X193221860Y-60889686D01*
X193221860Y-60889686D02*
X193403288Y-61010638D01*
X193403288Y-61010638D02*
X193524241Y-61131590D01*
X193524241Y-61131590D02*
X193584717Y-61252543D01*
D10*
X95752361Y-84515875D02*
X94752361Y-84515875D01*
X95752361Y-83468257D02*
X95276170Y-83801590D01*
X95752361Y-84039685D02*
X94752361Y-84039685D01*
X94752361Y-84039685D02*
X94752361Y-83658733D01*
X94752361Y-83658733D02*
X94799980Y-83563495D01*
X94799980Y-83563495D02*
X94847599Y-83515876D01*
X94847599Y-83515876D02*
X94942837Y-83468257D01*
X94942837Y-83468257D02*
X95085694Y-83468257D01*
X95085694Y-83468257D02*
X95180932Y-83515876D01*
X95180932Y-83515876D02*
X95228551Y-83563495D01*
X95228551Y-83563495D02*
X95276170Y-83658733D01*
X95276170Y-83658733D02*
X95276170Y-84039685D01*
X95847599Y-83277781D02*
X95847599Y-82515876D01*
X95752361Y-82277780D02*
X94752361Y-82277780D01*
X95752361Y-81801590D02*
X94752361Y-81801590D01*
X94752361Y-81801590D02*
X95752361Y-81230162D01*
X95752361Y-81230162D02*
X94752361Y-81230162D01*
X95752361Y-80230162D02*
X95752361Y-80801590D01*
X95752361Y-80515876D02*
X94752361Y-80515876D01*
X94752361Y-80515876D02*
X94895218Y-80611114D01*
X94895218Y-80611114D02*
X94990456Y-80706352D01*
X94990456Y-80706352D02*
X95038075Y-80801590D01*
X116242303Y-107471648D02*
X115908970Y-106995457D01*
X115670875Y-107471648D02*
X115670875Y-106471648D01*
X115670875Y-106471648D02*
X116051827Y-106471648D01*
X116051827Y-106471648D02*
X116147065Y-106519267D01*
X116147065Y-106519267D02*
X116194684Y-106566886D01*
X116194684Y-106566886D02*
X116242303Y-106662124D01*
X116242303Y-106662124D02*
X116242303Y-106804981D01*
X116242303Y-106804981D02*
X116194684Y-106900219D01*
X116194684Y-106900219D02*
X116147065Y-106947838D01*
X116147065Y-106947838D02*
X116051827Y-106995457D01*
X116051827Y-106995457D02*
X115670875Y-106995457D01*
X116670875Y-107471648D02*
X116670875Y-106471648D01*
X116670875Y-106852600D02*
X116766113Y-106804981D01*
X116766113Y-106804981D02*
X116956589Y-106804981D01*
X116956589Y-106804981D02*
X117051827Y-106852600D01*
X117051827Y-106852600D02*
X117099446Y-106900219D01*
X117099446Y-106900219D02*
X117147065Y-106995457D01*
X117147065Y-106995457D02*
X117147065Y-107281171D01*
X117147065Y-107281171D02*
X117099446Y-107376409D01*
X117099446Y-107376409D02*
X117051827Y-107424029D01*
X117051827Y-107424029D02*
X116956589Y-107471648D01*
X116956589Y-107471648D02*
X116766113Y-107471648D01*
X116766113Y-107471648D02*
X116670875Y-107424029D01*
X118099446Y-107471648D02*
X117528018Y-107471648D01*
X117813732Y-107471648D02*
X117813732Y-106471648D01*
X117813732Y-106471648D02*
X117718494Y-106614505D01*
X117718494Y-106614505D02*
X117623256Y-106709743D01*
X117623256Y-106709743D02*
X117528018Y-106757362D01*
X118480399Y-106566886D02*
X118528018Y-106519267D01*
X118528018Y-106519267D02*
X118623256Y-106471648D01*
X118623256Y-106471648D02*
X118861351Y-106471648D01*
X118861351Y-106471648D02*
X118956589Y-106519267D01*
X118956589Y-106519267D02*
X119004208Y-106566886D01*
X119004208Y-106566886D02*
X119051827Y-106662124D01*
X119051827Y-106662124D02*
X119051827Y-106757362D01*
X119051827Y-106757362D02*
X119004208Y-106900219D01*
X119004208Y-106900219D02*
X118432780Y-107471648D01*
X118432780Y-107471648D02*
X119051827Y-107471648D01*
X182242361Y-63813495D02*
X181766170Y-64146828D01*
X182242361Y-64384923D02*
X181242361Y-64384923D01*
X181242361Y-64384923D02*
X181242361Y-64003971D01*
X181242361Y-64003971D02*
X181289980Y-63908733D01*
X181289980Y-63908733D02*
X181337599Y-63861114D01*
X181337599Y-63861114D02*
X181432837Y-63813495D01*
X181432837Y-63813495D02*
X181575694Y-63813495D01*
X181575694Y-63813495D02*
X181670932Y-63861114D01*
X181670932Y-63861114D02*
X181718551Y-63908733D01*
X181718551Y-63908733D02*
X181766170Y-64003971D01*
X181766170Y-64003971D02*
X181766170Y-64384923D01*
X181242361Y-63480161D02*
X181242361Y-62813495D01*
X181242361Y-62813495D02*
X182242361Y-63242066D01*
X175937122Y-64063495D02*
X175984742Y-64111114D01*
X175984742Y-64111114D02*
X176032361Y-64253971D01*
X176032361Y-64253971D02*
X176032361Y-64349209D01*
X176032361Y-64349209D02*
X175984742Y-64492066D01*
X175984742Y-64492066D02*
X175889503Y-64587304D01*
X175889503Y-64587304D02*
X175794265Y-64634923D01*
X175794265Y-64634923D02*
X175603789Y-64682542D01*
X175603789Y-64682542D02*
X175460932Y-64682542D01*
X175460932Y-64682542D02*
X175270456Y-64634923D01*
X175270456Y-64634923D02*
X175175218Y-64587304D01*
X175175218Y-64587304D02*
X175079980Y-64492066D01*
X175079980Y-64492066D02*
X175032361Y-64349209D01*
X175032361Y-64349209D02*
X175032361Y-64253971D01*
X175032361Y-64253971D02*
X175079980Y-64111114D01*
X175079980Y-64111114D02*
X175127599Y-64063495D01*
X175032361Y-63730161D02*
X175032361Y-63111114D01*
X175032361Y-63111114D02*
X175413313Y-63444447D01*
X175413313Y-63444447D02*
X175413313Y-63301590D01*
X175413313Y-63301590D02*
X175460932Y-63206352D01*
X175460932Y-63206352D02*
X175508551Y-63158733D01*
X175508551Y-63158733D02*
X175603789Y-63111114D01*
X175603789Y-63111114D02*
X175841884Y-63111114D01*
X175841884Y-63111114D02*
X175937122Y-63158733D01*
X175937122Y-63158733D02*
X175984742Y-63206352D01*
X175984742Y-63206352D02*
X176032361Y-63301590D01*
X176032361Y-63301590D02*
X176032361Y-63587304D01*
X176032361Y-63587304D02*
X175984742Y-63682542D01*
X175984742Y-63682542D02*
X175937122Y-63730161D01*
X131277122Y-110718257D02*
X131324742Y-110765876D01*
X131324742Y-110765876D02*
X131372361Y-110908733D01*
X131372361Y-110908733D02*
X131372361Y-111003971D01*
X131372361Y-111003971D02*
X131324742Y-111146828D01*
X131324742Y-111146828D02*
X131229503Y-111242066D01*
X131229503Y-111242066D02*
X131134265Y-111289685D01*
X131134265Y-111289685D02*
X130943789Y-111337304D01*
X130943789Y-111337304D02*
X130800932Y-111337304D01*
X130800932Y-111337304D02*
X130610456Y-111289685D01*
X130610456Y-111289685D02*
X130515218Y-111242066D01*
X130515218Y-111242066D02*
X130419980Y-111146828D01*
X130419980Y-111146828D02*
X130372361Y-111003971D01*
X130372361Y-111003971D02*
X130372361Y-110908733D01*
X130372361Y-110908733D02*
X130419980Y-110765876D01*
X130419980Y-110765876D02*
X130467599Y-110718257D01*
X131372361Y-110289685D02*
X130372361Y-110289685D01*
X130753313Y-110289685D02*
X130705694Y-110194447D01*
X130705694Y-110194447D02*
X130705694Y-110003971D01*
X130705694Y-110003971D02*
X130753313Y-109908733D01*
X130753313Y-109908733D02*
X130800932Y-109861114D01*
X130800932Y-109861114D02*
X130896170Y-109813495D01*
X130896170Y-109813495D02*
X131181884Y-109813495D01*
X131181884Y-109813495D02*
X131277122Y-109861114D01*
X131277122Y-109861114D02*
X131324742Y-109908733D01*
X131324742Y-109908733D02*
X131372361Y-110003971D01*
X131372361Y-110003971D02*
X131372361Y-110194447D01*
X131372361Y-110194447D02*
X131324742Y-110289685D01*
X130705694Y-109384923D02*
X131705694Y-109384923D01*
X130753313Y-109384923D02*
X130705694Y-109289685D01*
X130705694Y-109289685D02*
X130705694Y-109099209D01*
X130705694Y-109099209D02*
X130753313Y-109003971D01*
X130753313Y-109003971D02*
X130800932Y-108956352D01*
X130800932Y-108956352D02*
X130896170Y-108908733D01*
X130896170Y-108908733D02*
X131181884Y-108908733D01*
X131181884Y-108908733D02*
X131277122Y-108956352D01*
X131277122Y-108956352D02*
X131324742Y-109003971D01*
X131324742Y-109003971D02*
X131372361Y-109099209D01*
X131372361Y-109099209D02*
X131372361Y-109289685D01*
X131372361Y-109289685D02*
X131324742Y-109384923D01*
X131372361Y-107956352D02*
X131372361Y-108527780D01*
X131372361Y-108242066D02*
X130372361Y-108242066D01*
X130372361Y-108242066D02*
X130515218Y-108337304D01*
X130515218Y-108337304D02*
X130610456Y-108432542D01*
X130610456Y-108432542D02*
X130658075Y-108527780D01*
X116242303Y-96971648D02*
X115908970Y-96495457D01*
X115670875Y-96971648D02*
X115670875Y-95971648D01*
X115670875Y-95971648D02*
X116051827Y-95971648D01*
X116051827Y-95971648D02*
X116147065Y-96019267D01*
X116147065Y-96019267D02*
X116194684Y-96066886D01*
X116194684Y-96066886D02*
X116242303Y-96162124D01*
X116242303Y-96162124D02*
X116242303Y-96304981D01*
X116242303Y-96304981D02*
X116194684Y-96400219D01*
X116194684Y-96400219D02*
X116147065Y-96447838D01*
X116147065Y-96447838D02*
X116051827Y-96495457D01*
X116051827Y-96495457D02*
X115670875Y-96495457D01*
X116670875Y-96971648D02*
X116670875Y-95971648D01*
X116670875Y-96352600D02*
X116766113Y-96304981D01*
X116766113Y-96304981D02*
X116956589Y-96304981D01*
X116956589Y-96304981D02*
X117051827Y-96352600D01*
X117051827Y-96352600D02*
X117099446Y-96400219D01*
X117099446Y-96400219D02*
X117147065Y-96495457D01*
X117147065Y-96495457D02*
X117147065Y-96781171D01*
X117147065Y-96781171D02*
X117099446Y-96876409D01*
X117099446Y-96876409D02*
X117051827Y-96924029D01*
X117051827Y-96924029D02*
X116956589Y-96971648D01*
X116956589Y-96971648D02*
X116766113Y-96971648D01*
X116766113Y-96971648D02*
X116670875Y-96924029D01*
X118099446Y-96971648D02*
X117528018Y-96971648D01*
X117813732Y-96971648D02*
X117813732Y-95971648D01*
X117813732Y-95971648D02*
X117718494Y-96114505D01*
X117718494Y-96114505D02*
X117623256Y-96209743D01*
X117623256Y-96209743D02*
X117528018Y-96257362D01*
X119051827Y-96971648D02*
X118480399Y-96971648D01*
X118766113Y-96971648D02*
X118766113Y-95971648D01*
X118766113Y-95971648D02*
X118670875Y-96114505D01*
X118670875Y-96114505D02*
X118575637Y-96209743D01*
X118575637Y-96209743D02*
X118480399Y-96257362D01*
X163824819Y-94824762D02*
X163348628Y-95158095D01*
X163824819Y-95396190D02*
X162824819Y-95396190D01*
X162824819Y-95396190D02*
X162824819Y-95015238D01*
X162824819Y-95015238D02*
X162872438Y-94920000D01*
X162872438Y-94920000D02*
X162920057Y-94872381D01*
X162920057Y-94872381D02*
X163015295Y-94824762D01*
X163015295Y-94824762D02*
X163158152Y-94824762D01*
X163158152Y-94824762D02*
X163253390Y-94872381D01*
X163253390Y-94872381D02*
X163301009Y-94920000D01*
X163301009Y-94920000D02*
X163348628Y-95015238D01*
X163348628Y-95015238D02*
X163348628Y-95396190D01*
X163158152Y-94539047D02*
X163158152Y-94158095D01*
X162824819Y-94396190D02*
X163681961Y-94396190D01*
X163681961Y-94396190D02*
X163777200Y-94348571D01*
X163777200Y-94348571D02*
X163824819Y-94253333D01*
X163824819Y-94253333D02*
X163824819Y-94158095D01*
X163824819Y-93824761D02*
X162824819Y-93824761D01*
X163824819Y-93396190D02*
X163301009Y-93396190D01*
X163301009Y-93396190D02*
X163205771Y-93443809D01*
X163205771Y-93443809D02*
X163158152Y-93539047D01*
X163158152Y-93539047D02*
X163158152Y-93681904D01*
X163158152Y-93681904D02*
X163205771Y-93777142D01*
X163205771Y-93777142D02*
X163253390Y-93824761D01*
X162920057Y-92967618D02*
X162872438Y-92919999D01*
X162872438Y-92919999D02*
X162824819Y-92824761D01*
X162824819Y-92824761D02*
X162824819Y-92586666D01*
X162824819Y-92586666D02*
X162872438Y-92491428D01*
X162872438Y-92491428D02*
X162920057Y-92443809D01*
X162920057Y-92443809D02*
X163015295Y-92396190D01*
X163015295Y-92396190D02*
X163110533Y-92396190D01*
X163110533Y-92396190D02*
X163253390Y-92443809D01*
X163253390Y-92443809D02*
X163824819Y-93015237D01*
X163824819Y-93015237D02*
X163824819Y-92396190D01*
X139622122Y-79904210D02*
X139669742Y-79951829D01*
X139669742Y-79951829D02*
X139717361Y-80094686D01*
X139717361Y-80094686D02*
X139717361Y-80189924D01*
X139717361Y-80189924D02*
X139669742Y-80332781D01*
X139669742Y-80332781D02*
X139574503Y-80428019D01*
X139574503Y-80428019D02*
X139479265Y-80475638D01*
X139479265Y-80475638D02*
X139288789Y-80523257D01*
X139288789Y-80523257D02*
X139145932Y-80523257D01*
X139145932Y-80523257D02*
X138955456Y-80475638D01*
X138955456Y-80475638D02*
X138860218Y-80428019D01*
X138860218Y-80428019D02*
X138764980Y-80332781D01*
X138764980Y-80332781D02*
X138717361Y-80189924D01*
X138717361Y-80189924D02*
X138717361Y-80094686D01*
X138717361Y-80094686D02*
X138764980Y-79951829D01*
X138764980Y-79951829D02*
X138812599Y-79904210D01*
X139050694Y-79618495D02*
X139050694Y-79237543D01*
X139717361Y-79475638D02*
X138860218Y-79475638D01*
X138860218Y-79475638D02*
X138764980Y-79428019D01*
X138764980Y-79428019D02*
X138717361Y-79332781D01*
X138717361Y-79332781D02*
X138717361Y-79237543D01*
X139717361Y-78380400D02*
X139717361Y-78951828D01*
X139717361Y-78666114D02*
X138717361Y-78666114D01*
X138717361Y-78666114D02*
X138860218Y-78761352D01*
X138860218Y-78761352D02*
X138955456Y-78856590D01*
X138955456Y-78856590D02*
X139003075Y-78951828D01*
X190859580Y-109321428D02*
X190907200Y-109369047D01*
X190907200Y-109369047D02*
X190954819Y-109511904D01*
X190954819Y-109511904D02*
X190954819Y-109607142D01*
X190954819Y-109607142D02*
X190907200Y-109749999D01*
X190907200Y-109749999D02*
X190811961Y-109845237D01*
X190811961Y-109845237D02*
X190716723Y-109892856D01*
X190716723Y-109892856D02*
X190526247Y-109940475D01*
X190526247Y-109940475D02*
X190383390Y-109940475D01*
X190383390Y-109940475D02*
X190192914Y-109892856D01*
X190192914Y-109892856D02*
X190097676Y-109845237D01*
X190097676Y-109845237D02*
X190002438Y-109749999D01*
X190002438Y-109749999D02*
X189954819Y-109607142D01*
X189954819Y-109607142D02*
X189954819Y-109511904D01*
X189954819Y-109511904D02*
X190002438Y-109369047D01*
X190002438Y-109369047D02*
X190050057Y-109321428D01*
X190954819Y-108892856D02*
X189954819Y-108892856D01*
X190335771Y-108892856D02*
X190288152Y-108797618D01*
X190288152Y-108797618D02*
X190288152Y-108607142D01*
X190288152Y-108607142D02*
X190335771Y-108511904D01*
X190335771Y-108511904D02*
X190383390Y-108464285D01*
X190383390Y-108464285D02*
X190478628Y-108416666D01*
X190478628Y-108416666D02*
X190764342Y-108416666D01*
X190764342Y-108416666D02*
X190859580Y-108464285D01*
X190859580Y-108464285D02*
X190907200Y-108511904D01*
X190907200Y-108511904D02*
X190954819Y-108607142D01*
X190954819Y-108607142D02*
X190954819Y-108797618D01*
X190954819Y-108797618D02*
X190907200Y-108892856D01*
X190288152Y-107988094D02*
X191288152Y-107988094D01*
X190335771Y-107988094D02*
X190288152Y-107892856D01*
X190288152Y-107892856D02*
X190288152Y-107702380D01*
X190288152Y-107702380D02*
X190335771Y-107607142D01*
X190335771Y-107607142D02*
X190383390Y-107559523D01*
X190383390Y-107559523D02*
X190478628Y-107511904D01*
X190478628Y-107511904D02*
X190764342Y-107511904D01*
X190764342Y-107511904D02*
X190859580Y-107559523D01*
X190859580Y-107559523D02*
X190907200Y-107607142D01*
X190907200Y-107607142D02*
X190954819Y-107702380D01*
X190954819Y-107702380D02*
X190954819Y-107892856D01*
X190954819Y-107892856D02*
X190907200Y-107988094D01*
X189954819Y-107178570D02*
X189954819Y-106559523D01*
X189954819Y-106559523D02*
X190335771Y-106892856D01*
X190335771Y-106892856D02*
X190335771Y-106749999D01*
X190335771Y-106749999D02*
X190383390Y-106654761D01*
X190383390Y-106654761D02*
X190431009Y-106607142D01*
X190431009Y-106607142D02*
X190526247Y-106559523D01*
X190526247Y-106559523D02*
X190764342Y-106559523D01*
X190764342Y-106559523D02*
X190859580Y-106607142D01*
X190859580Y-106607142D02*
X190907200Y-106654761D01*
X190907200Y-106654761D02*
X190954819Y-106749999D01*
X190954819Y-106749999D02*
X190954819Y-107035713D01*
X190954819Y-107035713D02*
X190907200Y-107130951D01*
X190907200Y-107130951D02*
X190859580Y-107178570D01*
X140908970Y-111471648D02*
X140575637Y-110995457D01*
X140337542Y-111471648D02*
X140337542Y-110471648D01*
X140337542Y-110471648D02*
X140718494Y-110471648D01*
X140718494Y-110471648D02*
X140813732Y-110519267D01*
X140813732Y-110519267D02*
X140861351Y-110566886D01*
X140861351Y-110566886D02*
X140908970Y-110662124D01*
X140908970Y-110662124D02*
X140908970Y-110804981D01*
X140908970Y-110804981D02*
X140861351Y-110900219D01*
X140861351Y-110900219D02*
X140813732Y-110947838D01*
X140813732Y-110947838D02*
X140718494Y-110995457D01*
X140718494Y-110995457D02*
X140337542Y-110995457D01*
X141194685Y-110804981D02*
X141575637Y-110804981D01*
X141337542Y-111471648D02*
X141337542Y-110614505D01*
X141337542Y-110614505D02*
X141385161Y-110519267D01*
X141385161Y-110519267D02*
X141480399Y-110471648D01*
X141480399Y-110471648D02*
X141575637Y-110471648D01*
X142432780Y-111471648D02*
X141861352Y-111471648D01*
X142147066Y-111471648D02*
X142147066Y-110471648D01*
X142147066Y-110471648D02*
X142051828Y-110614505D01*
X142051828Y-110614505D02*
X141956590Y-110709743D01*
X141956590Y-110709743D02*
X141861352Y-110757362D01*
X143385161Y-111471648D02*
X142813733Y-111471648D01*
X143099447Y-111471648D02*
X143099447Y-110471648D01*
X143099447Y-110471648D02*
X143004209Y-110614505D01*
X143004209Y-110614505D02*
X142908971Y-110709743D01*
X142908971Y-110709743D02*
X142813733Y-110757362D01*
X180084819Y-105848571D02*
X179608628Y-106181904D01*
X180084819Y-106419999D02*
X179084819Y-106419999D01*
X179084819Y-106419999D02*
X179084819Y-106039047D01*
X179084819Y-106039047D02*
X179132438Y-105943809D01*
X179132438Y-105943809D02*
X179180057Y-105896190D01*
X179180057Y-105896190D02*
X179275295Y-105848571D01*
X179275295Y-105848571D02*
X179418152Y-105848571D01*
X179418152Y-105848571D02*
X179513390Y-105896190D01*
X179513390Y-105896190D02*
X179561009Y-105943809D01*
X179561009Y-105943809D02*
X179608628Y-106039047D01*
X179608628Y-106039047D02*
X179608628Y-106419999D01*
X179418152Y-105562856D02*
X179418152Y-105181904D01*
X180084819Y-105419999D02*
X179227676Y-105419999D01*
X179227676Y-105419999D02*
X179132438Y-105372380D01*
X179132438Y-105372380D02*
X179084819Y-105277142D01*
X179084819Y-105277142D02*
X179084819Y-105181904D01*
X179180057Y-104896189D02*
X179132438Y-104848570D01*
X179132438Y-104848570D02*
X179084819Y-104753332D01*
X179084819Y-104753332D02*
X179084819Y-104515237D01*
X179084819Y-104515237D02*
X179132438Y-104419999D01*
X179132438Y-104419999D02*
X179180057Y-104372380D01*
X179180057Y-104372380D02*
X179275295Y-104324761D01*
X179275295Y-104324761D02*
X179370533Y-104324761D01*
X179370533Y-104324761D02*
X179513390Y-104372380D01*
X179513390Y-104372380D02*
X180084819Y-104943808D01*
X180084819Y-104943808D02*
X180084819Y-104324761D01*
X179084819Y-103991427D02*
X179084819Y-103372380D01*
X179084819Y-103372380D02*
X179465771Y-103705713D01*
X179465771Y-103705713D02*
X179465771Y-103562856D01*
X179465771Y-103562856D02*
X179513390Y-103467618D01*
X179513390Y-103467618D02*
X179561009Y-103419999D01*
X179561009Y-103419999D02*
X179656247Y-103372380D01*
X179656247Y-103372380D02*
X179894342Y-103372380D01*
X179894342Y-103372380D02*
X179989580Y-103419999D01*
X179989580Y-103419999D02*
X180037200Y-103467618D01*
X180037200Y-103467618D02*
X180084819Y-103562856D01*
X180084819Y-103562856D02*
X180084819Y-103848570D01*
X180084819Y-103848570D02*
X180037200Y-103943808D01*
X180037200Y-103943808D02*
X179989580Y-103991427D01*
X139155637Y-99101648D02*
X139155637Y-99911171D01*
X139155637Y-99911171D02*
X139203256Y-100006409D01*
X139203256Y-100006409D02*
X139250875Y-100054029D01*
X139250875Y-100054029D02*
X139346113Y-100101648D01*
X139346113Y-100101648D02*
X139536589Y-100101648D01*
X139536589Y-100101648D02*
X139631827Y-100054029D01*
X139631827Y-100054029D02*
X139679446Y-100006409D01*
X139679446Y-100006409D02*
X139727065Y-99911171D01*
X139727065Y-99911171D02*
X139727065Y-99101648D01*
X140108018Y-99101648D02*
X140727065Y-99101648D01*
X140727065Y-99101648D02*
X140393732Y-99482600D01*
X140393732Y-99482600D02*
X140536589Y-99482600D01*
X140536589Y-99482600D02*
X140631827Y-99530219D01*
X140631827Y-99530219D02*
X140679446Y-99577838D01*
X140679446Y-99577838D02*
X140727065Y-99673076D01*
X140727065Y-99673076D02*
X140727065Y-99911171D01*
X140727065Y-99911171D02*
X140679446Y-100006409D01*
X140679446Y-100006409D02*
X140631827Y-100054029D01*
X140631827Y-100054029D02*
X140536589Y-100101648D01*
X140536589Y-100101648D02*
X140250875Y-100101648D01*
X140250875Y-100101648D02*
X140155637Y-100054029D01*
X140155637Y-100054029D02*
X140108018Y-100006409D01*
X136107542Y-93780348D02*
X136107542Y-94018443D01*
X135869447Y-93923205D02*
X136107542Y-94018443D01*
X136107542Y-94018443D02*
X136345637Y-93923205D01*
X135964685Y-94208919D02*
X136107542Y-94018443D01*
X136107542Y-94018443D02*
X136250399Y-94208919D01*
X136107542Y-93780348D02*
X136107542Y-94018443D01*
X135869447Y-93923205D02*
X136107542Y-94018443D01*
X136107542Y-94018443D02*
X136345637Y-93923205D01*
X135964685Y-94208919D02*
X136107542Y-94018443D01*
X136107542Y-94018443D02*
X136250399Y-94208919D01*
X114421113Y-71231648D02*
X114087780Y-70755457D01*
X113849685Y-71231648D02*
X113849685Y-70231648D01*
X113849685Y-70231648D02*
X114230637Y-70231648D01*
X114230637Y-70231648D02*
X114325875Y-70279267D01*
X114325875Y-70279267D02*
X114373494Y-70326886D01*
X114373494Y-70326886D02*
X114421113Y-70422124D01*
X114421113Y-70422124D02*
X114421113Y-70564981D01*
X114421113Y-70564981D02*
X114373494Y-70660219D01*
X114373494Y-70660219D02*
X114325875Y-70707838D01*
X114325875Y-70707838D02*
X114230637Y-70755457D01*
X114230637Y-70755457D02*
X113849685Y-70755457D01*
X115325875Y-71231648D02*
X114849685Y-71231648D01*
X114849685Y-71231648D02*
X114849685Y-70231648D01*
X116183018Y-71231648D02*
X115611590Y-71231648D01*
X115897304Y-71231648D02*
X115897304Y-70231648D01*
X115897304Y-70231648D02*
X115802066Y-70374505D01*
X115802066Y-70374505D02*
X115706828Y-70469743D01*
X115706828Y-70469743D02*
X115611590Y-70517362D01*
%TO.C,Rhyst1*%
D12*
X164630000Y-79230000D02*
X167370000Y-79230000D01*
X167370000Y-85770000D01*
X164630000Y-85770000D01*
X164630000Y-79230000D01*
X166000000Y-86540000D02*
X166000000Y-85770000D01*
X166000000Y-78460000D02*
X166000000Y-79230000D01*
%TO.C,Cth1*%
X162370000Y-86120000D02*
X159630000Y-86120000D01*
X162370000Y-80880000D02*
X162370000Y-86120000D01*
X159630000Y-86120000D02*
X159630000Y-80880000D01*
X159630000Y-80880000D02*
X162370000Y-80880000D01*
%TO.C,Cbp2*%
X176370000Y-109870000D02*
X171130000Y-109870000D01*
X176370000Y-107130000D02*
X176370000Y-109870000D01*
X171130000Y-109870000D02*
X171130000Y-107130000D01*
X171130000Y-107130000D02*
X176370000Y-107130000D01*
%TO.C,U5*%
D13*
X188436000Y-93580000D02*
X196564000Y-93580000D01*
X196564000Y-93580000D02*
X196564000Y-93270110D01*
X196564000Y-83420000D02*
X188436000Y-83420000D01*
X188436000Y-83420000D02*
X188436000Y-83696860D01*
X188436000Y-85683140D02*
X188436000Y-86269890D01*
X188436000Y-88190110D02*
X188436000Y-88809890D01*
X188436000Y-90730110D02*
X188436000Y-91349890D01*
X188436000Y-93270110D02*
X188436000Y-93580000D01*
X196564000Y-91349890D02*
X196564000Y-90730110D01*
X196564000Y-88809890D02*
X196564000Y-88190110D01*
X196564000Y-86269890D02*
X196564000Y-85650110D01*
X196564000Y-83729890D02*
X196564000Y-83420000D01*
%TO.C,C8*%
D12*
X199259888Y-79475000D02*
X198759888Y-79475000D01*
X199009888Y-79725000D02*
X199009888Y-79225000D01*
X196455113Y-80580000D02*
X196455113Y-75420000D01*
X196415113Y-80580000D02*
X196415113Y-75420000D01*
X196375113Y-80579000D02*
X196375113Y-75421000D01*
X196335113Y-80577000D02*
X196335113Y-75423000D01*
X196295113Y-80575000D02*
X196295113Y-75425000D01*
X196255113Y-80572000D02*
X196255113Y-75428000D01*
X196215113Y-80569000D02*
X196215113Y-79040000D01*
X196215113Y-76960000D02*
X196215113Y-75431000D01*
X196175113Y-80565000D02*
X196175113Y-79040000D01*
X196175113Y-76960000D02*
X196175113Y-75435000D01*
X196135113Y-80560000D02*
X196135113Y-79040000D01*
X196135113Y-76960000D02*
X196135113Y-75440000D01*
X196095113Y-80555000D02*
X196095113Y-79040000D01*
X196095113Y-76960000D02*
X196095113Y-75445000D01*
X196055113Y-80549000D02*
X196055113Y-79040000D01*
X196055113Y-76960000D02*
X196055113Y-75451000D01*
X196015113Y-80543000D02*
X196015113Y-79040000D01*
X196015113Y-76960000D02*
X196015113Y-75457000D01*
X195975113Y-80536000D02*
X195975113Y-79040000D01*
X195975113Y-76960000D02*
X195975113Y-75464000D01*
X195935113Y-80528000D02*
X195935113Y-79040000D01*
X195935113Y-76960000D02*
X195935113Y-75472000D01*
X195895113Y-80519000D02*
X195895113Y-79040000D01*
X195895113Y-76960000D02*
X195895113Y-75481000D01*
X195855113Y-80510000D02*
X195855113Y-79040000D01*
X195855113Y-76960000D02*
X195855113Y-75490000D01*
X195815113Y-80501000D02*
X195815113Y-79040000D01*
X195815113Y-76960000D02*
X195815113Y-75499000D01*
X195775113Y-80490000D02*
X195775113Y-79040000D01*
X195775113Y-76960000D02*
X195775113Y-75510000D01*
X195735113Y-80479000D02*
X195735113Y-79040000D01*
X195735113Y-76960000D02*
X195735113Y-75521000D01*
X195695113Y-80467000D02*
X195695113Y-79040000D01*
X195695113Y-76960000D02*
X195695113Y-75533000D01*
X195655113Y-80455000D02*
X195655113Y-79040000D01*
X195655113Y-76960000D02*
X195655113Y-75545000D01*
X195615113Y-80442000D02*
X195615113Y-79040000D01*
X195615113Y-76960000D02*
X195615113Y-75558000D01*
X195575113Y-80428000D02*
X195575113Y-79040000D01*
X195575113Y-76960000D02*
X195575113Y-75572000D01*
X195535113Y-80413000D02*
X195535113Y-79040000D01*
X195535113Y-76960000D02*
X195535113Y-75587000D01*
X195495113Y-80398000D02*
X195495113Y-79040000D01*
X195495113Y-76960000D02*
X195495113Y-75602000D01*
X195455113Y-80382000D02*
X195455113Y-79040000D01*
X195455113Y-76960000D02*
X195455113Y-75618000D01*
X195415113Y-80365000D02*
X195415113Y-79040000D01*
X195415113Y-76960000D02*
X195415113Y-75635000D01*
X195375113Y-80347000D02*
X195375113Y-79040000D01*
X195375113Y-76960000D02*
X195375113Y-75653000D01*
X195335113Y-80329000D02*
X195335113Y-79040000D01*
X195335113Y-76960000D02*
X195335113Y-75671000D01*
X195295113Y-80309000D02*
X195295113Y-79040000D01*
X195295113Y-76960000D02*
X195295113Y-75691000D01*
X195255113Y-80289000D02*
X195255113Y-79040000D01*
X195255113Y-76960000D02*
X195255113Y-75711000D01*
X195215113Y-80268000D02*
X195215113Y-79040000D01*
X195215113Y-76960000D02*
X195215113Y-75732000D01*
X195175113Y-80246000D02*
X195175113Y-79040000D01*
X195175113Y-76960000D02*
X195175113Y-75754000D01*
X195135113Y-80223000D02*
X195135113Y-79040000D01*
X195135113Y-76960000D02*
X195135113Y-75777000D01*
X195095113Y-80199000D02*
X195095113Y-79040000D01*
X195095113Y-76960000D02*
X195095113Y-75801000D01*
X195055113Y-80175000D02*
X195055113Y-79040000D01*
X195055113Y-76960000D02*
X195055113Y-75825000D01*
X195015113Y-80149000D02*
X195015113Y-79040000D01*
X195015113Y-76960000D02*
X195015113Y-75851000D01*
X194975113Y-80122000D02*
X194975113Y-79040000D01*
X194975113Y-76960000D02*
X194975113Y-75878000D01*
X194935113Y-80094000D02*
X194935113Y-79040000D01*
X194935113Y-76960000D02*
X194935113Y-75906000D01*
X194895113Y-80065000D02*
X194895113Y-79040000D01*
X194895113Y-76960000D02*
X194895113Y-75935000D01*
X194855113Y-80035000D02*
X194855113Y-79040000D01*
X194855113Y-76960000D02*
X194855113Y-75965000D01*
X194815113Y-80003000D02*
X194815113Y-79040000D01*
X194815113Y-76960000D02*
X194815113Y-75997000D01*
X194775113Y-79970000D02*
X194775113Y-79040000D01*
X194775113Y-76960000D02*
X194775113Y-76030000D01*
X194735113Y-79936000D02*
X194735113Y-79040000D01*
X194735113Y-76960000D02*
X194735113Y-76064000D01*
X194695113Y-79901000D02*
X194695113Y-79040000D01*
X194695113Y-76960000D02*
X194695113Y-76099000D01*
X194655113Y-79864000D02*
X194655113Y-79040000D01*
X194655113Y-76960000D02*
X194655113Y-76136000D01*
X194615113Y-79825000D02*
X194615113Y-79040000D01*
X194615113Y-76960000D02*
X194615113Y-76175000D01*
X194575113Y-79785000D02*
X194575113Y-79040000D01*
X194575113Y-76960000D02*
X194575113Y-76215000D01*
X194535113Y-79743000D02*
X194535113Y-79040000D01*
X194535113Y-76960000D02*
X194535113Y-76257000D01*
X194495113Y-79699000D02*
X194495113Y-79040000D01*
X194495113Y-76960000D02*
X194495113Y-76301000D01*
X194455113Y-79652000D02*
X194455113Y-79040000D01*
X194455113Y-76960000D02*
X194455113Y-76348000D01*
X194415113Y-79604000D02*
X194415113Y-79040000D01*
X194415113Y-76960000D02*
X194415113Y-76396000D01*
X194375113Y-79553000D02*
X194375113Y-79040000D01*
X194375113Y-76960000D02*
X194375113Y-76447000D01*
X194335113Y-79499000D02*
X194335113Y-79040000D01*
X194335113Y-76960000D02*
X194335113Y-76501000D01*
X194295113Y-79443000D02*
X194295113Y-79040000D01*
X194295113Y-76960000D02*
X194295113Y-76557000D01*
X194255113Y-79383000D02*
X194255113Y-79040000D01*
X194255113Y-76960000D02*
X194255113Y-76617000D01*
X194215113Y-79319000D02*
X194215113Y-79040000D01*
X194215113Y-76960000D02*
X194215113Y-76681000D01*
X194175113Y-79251000D02*
X194175113Y-79040000D01*
X194175113Y-76960000D02*
X194175113Y-76749000D01*
X194135113Y-79177000D02*
X194135113Y-76823000D01*
X194095113Y-79098000D02*
X194095113Y-76902000D01*
X194055113Y-79011000D02*
X194055113Y-76989000D01*
X194015113Y-78914000D02*
X194015113Y-77086000D01*
X193975113Y-78805000D02*
X193975113Y-77195000D01*
X193935113Y-78677000D02*
X193935113Y-77323000D01*
X193895113Y-78517000D02*
X193895113Y-77483000D01*
X193855113Y-78283000D02*
X193855113Y-77717000D01*
X199075113Y-78000000D02*
G75*
G02*
X193835113Y-78000000I-2620000J0D01*
G01*
X193835113Y-78000000D02*
G75*
G02*
X199075113Y-78000000I2620000J0D01*
G01*
%TO.C,C7*%
X187259888Y-79975000D02*
X186759888Y-79975000D01*
X187009888Y-80225000D02*
X187009888Y-79725000D01*
X184455113Y-81080000D02*
X184455113Y-75920000D01*
X184415113Y-81080000D02*
X184415113Y-75920000D01*
X184375113Y-81079000D02*
X184375113Y-75921000D01*
X184335113Y-81077000D02*
X184335113Y-75923000D01*
X184295113Y-81075000D02*
X184295113Y-75925000D01*
X184255113Y-81072000D02*
X184255113Y-75928000D01*
X184215113Y-81069000D02*
X184215113Y-79540000D01*
X184215113Y-77460000D02*
X184215113Y-75931000D01*
X184175113Y-81065000D02*
X184175113Y-79540000D01*
X184175113Y-77460000D02*
X184175113Y-75935000D01*
X184135113Y-81060000D02*
X184135113Y-79540000D01*
X184135113Y-77460000D02*
X184135113Y-75940000D01*
X184095113Y-81055000D02*
X184095113Y-79540000D01*
X184095113Y-77460000D02*
X184095113Y-75945000D01*
X184055113Y-81049000D02*
X184055113Y-79540000D01*
X184055113Y-77460000D02*
X184055113Y-75951000D01*
X184015113Y-81043000D02*
X184015113Y-79540000D01*
X184015113Y-77460000D02*
X184015113Y-75957000D01*
X183975113Y-81036000D02*
X183975113Y-79540000D01*
X183975113Y-77460000D02*
X183975113Y-75964000D01*
X183935113Y-81028000D02*
X183935113Y-79540000D01*
X183935113Y-77460000D02*
X183935113Y-75972000D01*
X183895113Y-81019000D02*
X183895113Y-79540000D01*
X183895113Y-77460000D02*
X183895113Y-75981000D01*
X183855113Y-81010000D02*
X183855113Y-79540000D01*
X183855113Y-77460000D02*
X183855113Y-75990000D01*
X183815113Y-81001000D02*
X183815113Y-79540000D01*
X183815113Y-77460000D02*
X183815113Y-75999000D01*
X183775113Y-80990000D02*
X183775113Y-79540000D01*
X183775113Y-77460000D02*
X183775113Y-76010000D01*
X183735113Y-80979000D02*
X183735113Y-79540000D01*
X183735113Y-77460000D02*
X183735113Y-76021000D01*
X183695113Y-80967000D02*
X183695113Y-79540000D01*
X183695113Y-77460000D02*
X183695113Y-76033000D01*
X183655113Y-80955000D02*
X183655113Y-79540000D01*
X183655113Y-77460000D02*
X183655113Y-76045000D01*
X183615113Y-80942000D02*
X183615113Y-79540000D01*
X183615113Y-77460000D02*
X183615113Y-76058000D01*
X183575113Y-80928000D02*
X183575113Y-79540000D01*
X183575113Y-77460000D02*
X183575113Y-76072000D01*
X183535113Y-80913000D02*
X183535113Y-79540000D01*
X183535113Y-77460000D02*
X183535113Y-76087000D01*
X183495113Y-80898000D02*
X183495113Y-79540000D01*
X183495113Y-77460000D02*
X183495113Y-76102000D01*
X183455113Y-80882000D02*
X183455113Y-79540000D01*
X183455113Y-77460000D02*
X183455113Y-76118000D01*
X183415113Y-80865000D02*
X183415113Y-79540000D01*
X183415113Y-77460000D02*
X183415113Y-76135000D01*
X183375113Y-80847000D02*
X183375113Y-79540000D01*
X183375113Y-77460000D02*
X183375113Y-76153000D01*
X183335113Y-80829000D02*
X183335113Y-79540000D01*
X183335113Y-77460000D02*
X183335113Y-76171000D01*
X183295113Y-80809000D02*
X183295113Y-79540000D01*
X183295113Y-77460000D02*
X183295113Y-76191000D01*
X183255113Y-80789000D02*
X183255113Y-79540000D01*
X183255113Y-77460000D02*
X183255113Y-76211000D01*
X183215113Y-80768000D02*
X183215113Y-79540000D01*
X183215113Y-77460000D02*
X183215113Y-76232000D01*
X183175113Y-80746000D02*
X183175113Y-79540000D01*
X183175113Y-77460000D02*
X183175113Y-76254000D01*
X183135113Y-80723000D02*
X183135113Y-79540000D01*
X183135113Y-77460000D02*
X183135113Y-76277000D01*
X183095113Y-80699000D02*
X183095113Y-79540000D01*
X183095113Y-77460000D02*
X183095113Y-76301000D01*
X183055113Y-80675000D02*
X183055113Y-79540000D01*
X183055113Y-77460000D02*
X183055113Y-76325000D01*
X183015113Y-80649000D02*
X183015113Y-79540000D01*
X183015113Y-77460000D02*
X183015113Y-76351000D01*
X182975113Y-80622000D02*
X182975113Y-79540000D01*
X182975113Y-77460000D02*
X182975113Y-76378000D01*
X182935113Y-80594000D02*
X182935113Y-79540000D01*
X182935113Y-77460000D02*
X182935113Y-76406000D01*
X182895113Y-80565000D02*
X182895113Y-79540000D01*
X182895113Y-77460000D02*
X182895113Y-76435000D01*
X182855113Y-80535000D02*
X182855113Y-79540000D01*
X182855113Y-77460000D02*
X182855113Y-76465000D01*
X182815113Y-80503000D02*
X182815113Y-79540000D01*
X182815113Y-77460000D02*
X182815113Y-76497000D01*
X182775113Y-80470000D02*
X182775113Y-79540000D01*
X182775113Y-77460000D02*
X182775113Y-76530000D01*
X182735113Y-80436000D02*
X182735113Y-79540000D01*
X182735113Y-77460000D02*
X182735113Y-76564000D01*
X182695113Y-80401000D02*
X182695113Y-79540000D01*
X182695113Y-77460000D02*
X182695113Y-76599000D01*
X182655113Y-80364000D02*
X182655113Y-79540000D01*
X182655113Y-77460000D02*
X182655113Y-76636000D01*
X182615113Y-80325000D02*
X182615113Y-79540000D01*
X182615113Y-77460000D02*
X182615113Y-76675000D01*
X182575113Y-80285000D02*
X182575113Y-79540000D01*
X182575113Y-77460000D02*
X182575113Y-76715000D01*
X182535113Y-80243000D02*
X182535113Y-79540000D01*
X182535113Y-77460000D02*
X182535113Y-76757000D01*
X182495113Y-80199000D02*
X182495113Y-79540000D01*
X182495113Y-77460000D02*
X182495113Y-76801000D01*
X182455113Y-80152000D02*
X182455113Y-79540000D01*
X182455113Y-77460000D02*
X182455113Y-76848000D01*
X182415113Y-80104000D02*
X182415113Y-79540000D01*
X182415113Y-77460000D02*
X182415113Y-76896000D01*
X182375113Y-80053000D02*
X182375113Y-79540000D01*
X182375113Y-77460000D02*
X182375113Y-76947000D01*
X182335113Y-79999000D02*
X182335113Y-79540000D01*
X182335113Y-77460000D02*
X182335113Y-77001000D01*
X182295113Y-79943000D02*
X182295113Y-79540000D01*
X182295113Y-77460000D02*
X182295113Y-77057000D01*
X182255113Y-79883000D02*
X182255113Y-79540000D01*
X182255113Y-77460000D02*
X182255113Y-77117000D01*
X182215113Y-79819000D02*
X182215113Y-79540000D01*
X182215113Y-77460000D02*
X182215113Y-77181000D01*
X182175113Y-79751000D02*
X182175113Y-79540000D01*
X182175113Y-77460000D02*
X182175113Y-77249000D01*
X182135113Y-79677000D02*
X182135113Y-77323000D01*
X182095113Y-79598000D02*
X182095113Y-77402000D01*
X182055113Y-79511000D02*
X182055113Y-77489000D01*
X182015113Y-79414000D02*
X182015113Y-77586000D01*
X181975113Y-79305000D02*
X181975113Y-77695000D01*
X181935113Y-79177000D02*
X181935113Y-77823000D01*
X181895113Y-79017000D02*
X181895113Y-77983000D01*
X181855113Y-78783000D02*
X181855113Y-78217000D01*
X187075113Y-78500000D02*
G75*
G02*
X181835113Y-78500000I-2620000J0D01*
G01*
X181835113Y-78500000D02*
G75*
G02*
X187075113Y-78500000I2620000J0D01*
G01*
%TO.C,C1*%
X128297542Y-78276829D02*
X133537542Y-78276829D01*
X128297542Y-81016829D02*
X128297542Y-78276829D01*
X133537542Y-78276829D02*
X133537542Y-81016829D01*
X133537542Y-81016829D02*
X128297542Y-81016829D01*
%TO.C,C6*%
X122337542Y-85561942D02*
X127497542Y-85561942D01*
X122337542Y-85601942D02*
X127497542Y-85601942D01*
X122338542Y-85521942D02*
X127496542Y-85521942D01*
X122340542Y-85481942D02*
X127494542Y-85481942D01*
X122342542Y-85441942D02*
X127492542Y-85441942D01*
X122345542Y-85401942D02*
X127489542Y-85401942D01*
X122348542Y-85361942D02*
X123877542Y-85361942D01*
X122352542Y-85321942D02*
X123877542Y-85321942D01*
X122357542Y-85281942D02*
X123877542Y-85281942D01*
X122362542Y-85241942D02*
X123877542Y-85241942D01*
X122368542Y-85201942D02*
X123877542Y-85201942D01*
X122374542Y-85161942D02*
X123877542Y-85161942D01*
X122381542Y-85121942D02*
X123877542Y-85121942D01*
X122389542Y-85081942D02*
X123877542Y-85081942D01*
X122398542Y-85041942D02*
X123877542Y-85041942D01*
X122407542Y-85001942D02*
X123877542Y-85001942D01*
X122416542Y-84961942D02*
X123877542Y-84961942D01*
X122427542Y-84921942D02*
X123877542Y-84921942D01*
X122438542Y-84881942D02*
X123877542Y-84881942D01*
X122450542Y-84841942D02*
X123877542Y-84841942D01*
X122462542Y-84801942D02*
X123877542Y-84801942D01*
X122475542Y-84761942D02*
X123877542Y-84761942D01*
X122489542Y-84721942D02*
X123877542Y-84721942D01*
X122504542Y-84681942D02*
X123877542Y-84681942D01*
X122519542Y-84641942D02*
X123877542Y-84641942D01*
X122535542Y-84601942D02*
X123877542Y-84601942D01*
X122552542Y-84561942D02*
X123877542Y-84561942D01*
X122570542Y-84521942D02*
X123877542Y-84521942D01*
X122588542Y-84481942D02*
X123877542Y-84481942D01*
X122608542Y-84441942D02*
X123877542Y-84441942D01*
X122628542Y-84401942D02*
X123877542Y-84401942D01*
X122649542Y-84361942D02*
X123877542Y-84361942D01*
X122671542Y-84321942D02*
X123877542Y-84321942D01*
X122694542Y-84281942D02*
X123877542Y-84281942D01*
X122718542Y-84241942D02*
X123877542Y-84241942D01*
X122742542Y-84201942D02*
X123877542Y-84201942D01*
X122768542Y-84161942D02*
X123877542Y-84161942D01*
X122795542Y-84121942D02*
X123877542Y-84121942D01*
X122823542Y-84081942D02*
X123877542Y-84081942D01*
X122852542Y-84041942D02*
X123877542Y-84041942D01*
X122882542Y-84001942D02*
X123877542Y-84001942D01*
X122914542Y-83961942D02*
X123877542Y-83961942D01*
X122947542Y-83921942D02*
X123877542Y-83921942D01*
X122981542Y-83881942D02*
X123877542Y-83881942D01*
X123016542Y-83841942D02*
X123877542Y-83841942D01*
X123053542Y-83801942D02*
X123877542Y-83801942D01*
X123092542Y-83761942D02*
X123877542Y-83761942D01*
X123132542Y-83721942D02*
X123877542Y-83721942D01*
X123174542Y-83681942D02*
X123877542Y-83681942D01*
X123192542Y-88156717D02*
X123692542Y-88156717D01*
X123218542Y-83641942D02*
X123877542Y-83641942D01*
X123265542Y-83601942D02*
X123877542Y-83601942D01*
X123313542Y-83561942D02*
X123877542Y-83561942D01*
X123364542Y-83521942D02*
X123877542Y-83521942D01*
X123418542Y-83481942D02*
X123877542Y-83481942D01*
X123442542Y-88406717D02*
X123442542Y-87906717D01*
X123474542Y-83441942D02*
X123877542Y-83441942D01*
X123534542Y-83401942D02*
X123877542Y-83401942D01*
X123598542Y-83361942D02*
X123877542Y-83361942D01*
X123666542Y-83321942D02*
X123877542Y-83321942D01*
X123740542Y-83281942D02*
X126094542Y-83281942D01*
X123819542Y-83241942D02*
X126015542Y-83241942D01*
X123906542Y-83201942D02*
X125928542Y-83201942D01*
X124003542Y-83161942D02*
X125831542Y-83161942D01*
X124112542Y-83121942D02*
X125722542Y-83121942D01*
X124240542Y-83081942D02*
X125594542Y-83081942D01*
X124400542Y-83041942D02*
X125434542Y-83041942D01*
X124634542Y-83001942D02*
X125200542Y-83001942D01*
X125957542Y-83321942D02*
X126168542Y-83321942D01*
X125957542Y-83361942D02*
X126236542Y-83361942D01*
X125957542Y-83401942D02*
X126300542Y-83401942D01*
X125957542Y-83441942D02*
X126360542Y-83441942D01*
X125957542Y-83481942D02*
X126416542Y-83481942D01*
X125957542Y-83521942D02*
X126470542Y-83521942D01*
X125957542Y-83561942D02*
X126521542Y-83561942D01*
X125957542Y-83601942D02*
X126569542Y-83601942D01*
X125957542Y-83641942D02*
X126616542Y-83641942D01*
X125957542Y-83681942D02*
X126660542Y-83681942D01*
X125957542Y-83721942D02*
X126702542Y-83721942D01*
X125957542Y-83761942D02*
X126742542Y-83761942D01*
X125957542Y-83801942D02*
X126781542Y-83801942D01*
X125957542Y-83841942D02*
X126818542Y-83841942D01*
X125957542Y-83881942D02*
X126853542Y-83881942D01*
X125957542Y-83921942D02*
X126887542Y-83921942D01*
X125957542Y-83961942D02*
X126920542Y-83961942D01*
X125957542Y-84001942D02*
X126952542Y-84001942D01*
X125957542Y-84041942D02*
X126982542Y-84041942D01*
X125957542Y-84081942D02*
X127011542Y-84081942D01*
X125957542Y-84121942D02*
X127039542Y-84121942D01*
X125957542Y-84161942D02*
X127066542Y-84161942D01*
X125957542Y-84201942D02*
X127092542Y-84201942D01*
X125957542Y-84241942D02*
X127116542Y-84241942D01*
X125957542Y-84281942D02*
X127140542Y-84281942D01*
X125957542Y-84321942D02*
X127163542Y-84321942D01*
X125957542Y-84361942D02*
X127185542Y-84361942D01*
X125957542Y-84401942D02*
X127206542Y-84401942D01*
X125957542Y-84441942D02*
X127226542Y-84441942D01*
X125957542Y-84481942D02*
X127246542Y-84481942D01*
X125957542Y-84521942D02*
X127264542Y-84521942D01*
X125957542Y-84561942D02*
X127282542Y-84561942D01*
X125957542Y-84601942D02*
X127299542Y-84601942D01*
X125957542Y-84641942D02*
X127315542Y-84641942D01*
X125957542Y-84681942D02*
X127330542Y-84681942D01*
X125957542Y-84721942D02*
X127345542Y-84721942D01*
X125957542Y-84761942D02*
X127359542Y-84761942D01*
X125957542Y-84801942D02*
X127372542Y-84801942D01*
X125957542Y-84841942D02*
X127384542Y-84841942D01*
X125957542Y-84881942D02*
X127396542Y-84881942D01*
X125957542Y-84921942D02*
X127407542Y-84921942D01*
X125957542Y-84961942D02*
X127418542Y-84961942D01*
X125957542Y-85001942D02*
X127427542Y-85001942D01*
X125957542Y-85041942D02*
X127436542Y-85041942D01*
X125957542Y-85081942D02*
X127445542Y-85081942D01*
X125957542Y-85121942D02*
X127453542Y-85121942D01*
X125957542Y-85161942D02*
X127460542Y-85161942D01*
X125957542Y-85201942D02*
X127466542Y-85201942D01*
X125957542Y-85241942D02*
X127472542Y-85241942D01*
X125957542Y-85281942D02*
X127477542Y-85281942D01*
X125957542Y-85321942D02*
X127482542Y-85321942D01*
X125957542Y-85361942D02*
X127486542Y-85361942D01*
X127537542Y-85601942D02*
G75*
G02*
X122297542Y-85601942I-2620000J0D01*
G01*
X122297542Y-85601942D02*
G75*
G02*
X127537542Y-85601942I2620000J0D01*
G01*
%TO.C,Rf12*%
X128417542Y-95526829D02*
X128417542Y-96296829D01*
X128417542Y-103606829D02*
X128417542Y-102836829D01*
X127047542Y-96296829D02*
X129787542Y-96296829D01*
X129787542Y-102836829D01*
X127047542Y-102836829D01*
X127047542Y-96296829D01*
%TO.C,R4*%
X159377542Y-68646829D02*
X160147542Y-68646829D01*
X167457542Y-68646829D02*
X166687542Y-68646829D01*
X160147542Y-67276829D02*
X166687542Y-67276829D01*
X166687542Y-70016829D01*
X160147542Y-70016829D01*
X160147542Y-67276829D01*
%TO.C,C2*%
X112297542Y-64776829D02*
X117537542Y-64776829D01*
X112297542Y-67516829D02*
X112297542Y-64776829D01*
X117537542Y-64776829D02*
X117537542Y-67516829D01*
X117537542Y-67516829D02*
X112297542Y-67516829D01*
%TO.C,U4*%
D13*
X136615542Y-60855369D02*
X136615542Y-61494015D01*
X136615542Y-63259643D02*
X136615542Y-64034015D01*
X136615542Y-65799643D02*
X136615542Y-66574015D01*
X136615542Y-68339643D02*
X136615542Y-68726829D01*
X136615542Y-68726829D02*
X143219542Y-68726829D01*
X143219542Y-58566829D02*
X136615542Y-58566829D01*
X143219542Y-58954015D02*
X143219542Y-58566829D01*
X143219542Y-61494015D02*
X143219542Y-60719643D01*
X143219542Y-64034015D02*
X143219542Y-63259643D01*
X143219542Y-66574015D02*
X143219542Y-65799643D01*
X143219542Y-68726829D02*
X143219542Y-68339643D01*
X140222342Y-58566829D02*
G75*
G02*
X139612742Y-58566829I-304800J0D01*
G01*
%TO.C,Clpf1*%
D12*
X112297542Y-78276829D02*
X117537542Y-78276829D01*
X112297542Y-81016829D02*
X112297542Y-78276829D01*
X117537542Y-78276829D02*
X117537542Y-81016829D01*
X117537542Y-81016829D02*
X112297542Y-81016829D01*
%TO.C,R2*%
X110877542Y-59646829D02*
X111647542Y-59646829D01*
X118957542Y-59646829D02*
X118187542Y-59646829D01*
X111647542Y-58276829D02*
X118187542Y-58276829D01*
X118187542Y-61016829D01*
X111647542Y-61016829D01*
X111647542Y-58276829D01*
%TO.C,Rhpf1*%
X172880000Y-96000000D02*
X173650000Y-96000000D01*
X180960000Y-96000000D02*
X180190000Y-96000000D01*
X173650000Y-94630000D02*
X180190000Y-94630000D01*
X180190000Y-97370000D01*
X173650000Y-97370000D01*
X173650000Y-94630000D01*
%TO.C,METRO_OUT1*%
D14*
X194250000Y-100170000D02*
X196750000Y-100170000D01*
X194250000Y-110830000D02*
X194250000Y-100170000D01*
X196750000Y-100170000D02*
X196750000Y-110830000D01*
X196750000Y-110830000D02*
X194250000Y-110830000D01*
%TO.C,Rpullup1*%
D12*
X174380000Y-90500000D02*
X175150000Y-90500000D01*
X182460000Y-90500000D02*
X181690000Y-90500000D01*
X175150000Y-89130000D02*
X181690000Y-89130000D01*
X181690000Y-91870000D01*
X175150000Y-91870000D01*
X175150000Y-89130000D01*
%TO.C,COIL_IN1*%
X96297542Y-57526829D02*
X104337542Y-57526829D01*
X96297542Y-68266829D02*
X96297542Y-57526829D01*
X99917542Y-58334829D02*
X99917542Y-57526829D01*
X99917542Y-63266829D02*
X99917542Y-61958829D01*
X99917542Y-68266829D02*
X99917542Y-67026829D01*
X100917542Y-58334829D02*
X100917542Y-57526829D01*
X100917542Y-63266829D02*
X100917542Y-61958829D01*
X100917542Y-68266829D02*
X100917542Y-67026829D01*
X102217542Y-59603829D02*
X102217542Y-57526829D01*
X102217542Y-63266829D02*
X102217542Y-60689829D01*
X102217542Y-68266829D02*
X102217542Y-67026829D01*
X104337542Y-57526829D02*
X104337542Y-64846829D01*
X104337542Y-65446829D02*
X104337542Y-68266829D01*
X104337542Y-68266829D02*
X96297542Y-68266829D01*
X104337542Y-65146829D02*
X104947542Y-64706829D01*
X104947542Y-65586829D01*
X104337542Y-65146829D01*
G36*
X104947542Y-65586829D02*
G01*
X104337542Y-65146829D01*
X104947542Y-64706829D01*
X104947542Y-65586829D01*
G37*
%TO.C,Cbp4*%
X115047542Y-109276829D02*
X120287542Y-109276829D01*
X115047542Y-112016829D02*
X115047542Y-109276829D01*
X120287542Y-109276829D02*
X120287542Y-112016829D01*
X120287542Y-112016829D02*
X115047542Y-112016829D01*
%TO.C,Rth1*%
X165452542Y-73261829D02*
X166222542Y-73261829D01*
X173532542Y-73261829D02*
X172762542Y-73261829D01*
X166222542Y-71891829D02*
X172762542Y-71891829D01*
X172762542Y-74631829D01*
X166222542Y-74631829D01*
X166222542Y-71891829D01*
%TO.C,Chpf1*%
X150702542Y-71391829D02*
X155942542Y-71391829D01*
X150702542Y-74131829D02*
X150702542Y-71391829D01*
X155942542Y-71391829D02*
X155942542Y-74131829D01*
X155942542Y-74131829D02*
X150702542Y-74131829D01*
%TO.C,Rf1*%
X127222542Y-73146829D02*
X127992542Y-73146829D01*
X135302542Y-73146829D02*
X134532542Y-73146829D01*
X127992542Y-71776829D02*
X134532542Y-71776829D01*
X134532542Y-74516829D01*
X127992542Y-74516829D01*
X127992542Y-71776829D01*
%TO.C,R1*%
X127917542Y-59606829D02*
X127917542Y-60376829D01*
X127917542Y-67686829D02*
X127917542Y-66916829D01*
X126547542Y-60376829D02*
X129287542Y-60376829D01*
X129287542Y-66916829D01*
X126547542Y-66916829D01*
X126547542Y-60376829D01*
%TO.C,Rg1*%
X133452542Y-87761829D02*
X134222542Y-87761829D01*
X141532542Y-87761829D02*
X140762542Y-87761829D01*
X134222542Y-86391829D02*
X140762542Y-86391829D01*
X140762542Y-89131829D01*
X134222542Y-89131829D01*
X134222542Y-86391829D01*
%TO.C,Cin1*%
X109547542Y-97776829D02*
X114787542Y-97776829D01*
X109547542Y-100516829D02*
X109547542Y-97776829D01*
X114787542Y-97776829D02*
X114787542Y-100516829D01*
X114787542Y-100516829D02*
X109547542Y-100516829D01*
%TO.C,U1*%
D13*
X149579542Y-77554829D02*
X149579542Y-77869789D01*
X149579542Y-80033869D02*
X149579542Y-80417268D01*
X149579542Y-82566390D02*
X149579542Y-82957268D01*
X149579542Y-85106390D02*
X149579542Y-85497268D01*
X149579542Y-87646390D02*
X149579542Y-87968829D01*
X149579542Y-87968829D02*
X156945542Y-87968829D01*
X156945542Y-77554829D02*
X149579542Y-77554829D01*
X156945542Y-77877268D02*
X156945542Y-77554829D01*
X156945542Y-80417268D02*
X156945542Y-80026390D01*
X156945542Y-82957268D02*
X156945542Y-82566390D01*
X156945542Y-85497268D02*
X156945542Y-85106390D01*
X156945542Y-87968829D02*
X156945542Y-87646390D01*
%TO.C,D4*%
D12*
X159837542Y-61646829D02*
X160487542Y-61646829D01*
X163887542Y-62766829D02*
X163887542Y-60526829D01*
X164007542Y-62766829D02*
X164007542Y-60526829D01*
X164127542Y-62766829D02*
X164127542Y-60526829D01*
X165377542Y-61646829D02*
X164727542Y-61646829D01*
X160487542Y-60526829D02*
X164727542Y-60526829D01*
X164727542Y-62766829D01*
X160487542Y-62766829D01*
X160487542Y-60526829D01*
%TO.C,Rf22*%
X155380000Y-108500000D02*
X156150000Y-108500000D01*
X163460000Y-108500000D02*
X162690000Y-108500000D01*
X156150000Y-107130000D02*
X162690000Y-107130000D01*
X162690000Y-109870000D01*
X156150000Y-109870000D01*
X156150000Y-107130000D01*
%TO.C,C5*%
X112547542Y-83526829D02*
X115287542Y-83526829D01*
X112547542Y-88766829D02*
X112547542Y-83526829D01*
X115287542Y-83526829D02*
X115287542Y-88766829D01*
X115287542Y-88766829D02*
X112547542Y-88766829D01*
%TO.C,D5*%
X166230000Y-102500000D02*
X166880000Y-102500000D01*
X170280000Y-103620000D02*
X170280000Y-101380000D01*
X170400000Y-103620000D02*
X170400000Y-101380000D01*
X170520000Y-103620000D02*
X170520000Y-101380000D01*
X171770000Y-102500000D02*
X171120000Y-102500000D01*
X166880000Y-101380000D02*
X171120000Y-101380000D01*
X171120000Y-103620000D01*
X166880000Y-103620000D01*
X166880000Y-101380000D01*
%TO.C,MAG_IN1*%
D14*
X96857542Y-108896829D02*
X107517542Y-108896829D01*
X96857542Y-111396829D02*
X96857542Y-108896829D01*
X107517542Y-108896829D02*
X107517542Y-111396829D01*
X107517542Y-111396829D02*
X96857542Y-111396829D01*
%TO.C,R3*%
D12*
X152417542Y-59606829D02*
X152417542Y-60376829D01*
X152417542Y-67686829D02*
X152417542Y-66916829D01*
X151047542Y-60376829D02*
X153787542Y-60376829D01*
X153787542Y-66916829D01*
X151047542Y-66916829D01*
X151047542Y-60376829D01*
%TO.C,Rf21*%
X149960000Y-102500000D02*
X150730000Y-102500000D01*
X158040000Y-102500000D02*
X157270000Y-102500000D01*
X150730000Y-101130000D02*
X157270000Y-101130000D01*
X157270000Y-103870000D01*
X150730000Y-103870000D01*
X150730000Y-101130000D01*
%TO.C,US_IN1*%
X96297542Y-93526829D02*
X104337542Y-93526829D01*
X96297542Y-104266829D02*
X96297542Y-93526829D01*
X99917542Y-94334829D02*
X99917542Y-93526829D01*
X99917542Y-99266829D02*
X99917542Y-97958829D01*
X99917542Y-104266829D02*
X99917542Y-103026829D01*
X100917542Y-94334829D02*
X100917542Y-93526829D01*
X100917542Y-99266829D02*
X100917542Y-97958829D01*
X100917542Y-104266829D02*
X100917542Y-103026829D01*
X102217542Y-95603829D02*
X102217542Y-93526829D01*
X102217542Y-99266829D02*
X102217542Y-96689829D01*
X102217542Y-104266829D02*
X102217542Y-103026829D01*
X104337542Y-93526829D02*
X104337542Y-100846829D01*
X104337542Y-101446829D02*
X104337542Y-104266829D01*
X104337542Y-104266829D02*
X96297542Y-104266829D01*
X104337542Y-101146829D02*
X104947542Y-100706829D01*
X104947542Y-101586829D01*
X104337542Y-101146829D01*
G36*
X104947542Y-101586829D02*
G01*
X104337542Y-101146829D01*
X104947542Y-100706829D01*
X104947542Y-101586829D01*
G37*
%TO.C,U2*%
D13*
X171198000Y-79208540D02*
X171198000Y-79847186D01*
X171198000Y-81612814D02*
X171198000Y-82387186D01*
X171198000Y-84152814D02*
X171198000Y-84927186D01*
X171198000Y-86692814D02*
X171198000Y-87080000D01*
X171198000Y-87080000D02*
X177802000Y-87080000D01*
X177802000Y-76920000D02*
X171198000Y-76920000D01*
X177802000Y-77307186D02*
X177802000Y-76920000D01*
X177802000Y-79847186D02*
X177802000Y-79072814D01*
X177802000Y-82387186D02*
X177802000Y-81612814D01*
X177802000Y-84927186D02*
X177802000Y-84152814D01*
X177802000Y-87080000D02*
X177802000Y-86692814D01*
X174804800Y-76920000D02*
G75*
G02*
X174195200Y-76920000I-304800J0D01*
G01*
%TO.C,PWR_IN1*%
D14*
X192667542Y-59006829D02*
X195167542Y-59006829D01*
X192667542Y-69666829D02*
X192667542Y-59006829D01*
X195167542Y-59006829D02*
X195167542Y-69666829D01*
X195167542Y-69666829D02*
X192667542Y-69666829D01*
%TO.C,IR_IN1*%
D12*
X96297542Y-77026829D02*
X104337542Y-77026829D01*
X96297542Y-87766829D02*
X96297542Y-77026829D01*
X99917542Y-77834829D02*
X99917542Y-77026829D01*
X99917542Y-82766829D02*
X99917542Y-81458829D01*
X99917542Y-87766829D02*
X99917542Y-86526829D01*
X100917542Y-77834829D02*
X100917542Y-77026829D01*
X100917542Y-82766829D02*
X100917542Y-81458829D01*
X100917542Y-87766829D02*
X100917542Y-86526829D01*
X102217542Y-79103829D02*
X102217542Y-77026829D01*
X102217542Y-82766829D02*
X102217542Y-80189829D01*
X102217542Y-87766829D02*
X102217542Y-86526829D01*
X104337542Y-77026829D02*
X104337542Y-84346829D01*
X104337542Y-84946829D02*
X104337542Y-87766829D01*
X104337542Y-87766829D02*
X96297542Y-87766829D01*
X104337542Y-84646829D02*
X104947542Y-84206829D01*
X104947542Y-85086829D01*
X104337542Y-84646829D01*
G36*
X104947542Y-85086829D02*
G01*
X104337542Y-84646829D01*
X104947542Y-84206829D01*
X104947542Y-85086829D01*
G37*
%TO.C,Rb12*%
X113297542Y-104646829D02*
X114067542Y-104646829D01*
X121377542Y-104646829D02*
X120607542Y-104646829D01*
X114067542Y-103276829D02*
X120607542Y-103276829D01*
X120607542Y-106016829D01*
X114067542Y-106016829D01*
X114067542Y-103276829D01*
%TO.C,R7*%
X179417542Y-59606829D02*
X179417542Y-60376829D01*
X179417542Y-67686829D02*
X179417542Y-66916829D01*
X178047542Y-60376829D02*
X180787542Y-60376829D01*
X180787542Y-66916829D01*
X178047542Y-66916829D01*
X178047542Y-60376829D01*
%TO.C,C3*%
X171707542Y-61276829D02*
X174447542Y-61276829D01*
X171707542Y-66516829D02*
X171707542Y-61276829D01*
X174447542Y-61276829D02*
X174447542Y-66516829D01*
X174447542Y-66516829D02*
X171707542Y-66516829D01*
%TO.C,Cbp1*%
X127047542Y-107026829D02*
X129787542Y-107026829D01*
X127047542Y-112266829D02*
X127047542Y-107026829D01*
X129787542Y-107026829D02*
X129787542Y-112266829D01*
X129787542Y-112266829D02*
X127047542Y-112266829D01*
%TO.C,Rb11*%
X113297542Y-94146829D02*
X114067542Y-94146829D01*
X121377542Y-94146829D02*
X120607542Y-94146829D01*
X114067542Y-92776829D02*
X120607542Y-92776829D01*
X120607542Y-95516829D01*
X114067542Y-95516829D01*
X114067542Y-92776829D01*
%TO.C,Rth2*%
X161000000Y-89880000D02*
X161000000Y-90650000D01*
X161000000Y-97960000D02*
X161000000Y-97190000D01*
X159630000Y-90650000D02*
X162370000Y-90650000D01*
X162370000Y-97190000D01*
X159630000Y-97190000D01*
X159630000Y-90650000D01*
%TO.C,Cf1*%
X140392542Y-76831829D02*
X143132542Y-76831829D01*
X140392542Y-82071829D02*
X140392542Y-76831829D01*
X143132542Y-76831829D02*
X143132542Y-82071829D01*
X143132542Y-82071829D02*
X140392542Y-82071829D01*
%TO.C,Cbp3*%
X186630000Y-105630000D02*
X189370000Y-105630000D01*
X186630000Y-110870000D02*
X186630000Y-105630000D01*
X189370000Y-105630000D02*
X189370000Y-110870000D01*
X189370000Y-110870000D02*
X186630000Y-110870000D01*
%TO.C,Rf11*%
X137797542Y-108646829D02*
X138567542Y-108646829D01*
X145877542Y-108646829D02*
X145107542Y-108646829D01*
X138567542Y-107276829D02*
X145107542Y-107276829D01*
X145107542Y-110016829D01*
X138567542Y-110016829D01*
X138567542Y-107276829D01*
%TO.C,Rf23*%
X182000000Y-100880000D02*
X182000000Y-101650000D01*
X182000000Y-108960000D02*
X182000000Y-108190000D01*
X180630000Y-101650000D02*
X183370000Y-101650000D01*
X183370000Y-108190000D01*
X180630000Y-108190000D01*
X180630000Y-101650000D01*
%TO.C,U3*%
D13*
X136234542Y-94439829D02*
X136234542Y-94754789D01*
X136234542Y-96918869D02*
X136234542Y-97302268D01*
X136234542Y-99451390D02*
X136234542Y-99842268D01*
X136234542Y-101991390D02*
X136234542Y-102382268D01*
X136234542Y-104531390D02*
X136234542Y-104853829D01*
X136234542Y-104853829D02*
X143600542Y-104853829D01*
X143600542Y-94439829D02*
X136234542Y-94439829D01*
X143600542Y-94762268D02*
X143600542Y-94439829D01*
X143600542Y-97302268D02*
X143600542Y-96911390D01*
X143600542Y-99842268D02*
X143600542Y-99451390D01*
X143600542Y-102382268D02*
X143600542Y-101991390D01*
X143600542Y-104853829D02*
X143600542Y-104531390D01*
%TO.C,RL1*%
D12*
X110952542Y-73146829D02*
X111722542Y-73146829D01*
X119032542Y-73146829D02*
X118262542Y-73146829D01*
X111722542Y-71776829D02*
X118262542Y-71776829D01*
X118262542Y-74516829D01*
X111722542Y-74516829D01*
X111722542Y-71776829D01*
%TD*%
M02*
